<?xml version="1.0" encoding="UTF-8"?>
<svg version="1.1" xmlns="http://www.w3.org/2000/svg" width="117" height="100">
<path d="M0 0 C0.66671722 -0.00817749 1.33343445 -0.01635498 2.02035522 -0.02478027 C4.23581025 -0.04967571 6.45120098 -0.0661615 8.66674805 -0.08056641 C9.42208517 -0.08589008 10.17742229 -0.09121376 10.95564842 -0.09669876 C14.95430869 -0.12344961 18.95293754 -0.1428174 22.95166016 -0.15722656 C27.08474162 -0.17387093 31.2170251 -0.21864008 35.34980488 -0.26959801 C38.52482529 -0.30323975 41.69965574 -0.31480059 44.87483788 -0.32045364 C46.39831827 -0.32717581 47.92178574 -0.34242316 49.44509315 -0.36634445 C51.57864092 -0.39793413 53.7100302 -0.39804385 55.84375 -0.390625 C57.05762894 -0.39871185 58.27150787 -0.40679871 59.52217102 -0.41513062 C62.6159668 0.19287109 62.6159668 0.19287109 65.01261902 2.49594116 C67.09603786 6.00038025 67.09971791 8.99267872 66.9284668 12.94287109 C66.91879883 13.62736328 66.90913086 14.31185547 66.89916992 15.01708984 C66.78515848 20.02367941 66.78515848 20.02367941 65.6159668 21.19287109 C62.75329113 21.26612277 59.9152478 21.28525314 57.0534668 21.25537109 C56.2471582 21.25085938 55.44084961 21.24634766 54.61010742 21.24169922 C52.61202923 21.22987627 50.61398897 21.21194023 48.6159668 21.19287109 C48.6159668 23.83287109 48.6159668 26.47287109 48.6159668 29.19287109 C49.60338867 29.16966797 50.59081055 29.14646484 51.6081543 29.12255859 C52.88948242 29.10451172 54.17081055 29.08646484 55.4909668 29.06787109 C56.76713867 29.04466797 58.04331055 29.02146484 59.3581543 28.99755859 C62.6159668 29.19287109 62.6159668 29.19287109 64.6159668 31.19287109 C64.7409668 34.81787109 64.7409668 34.81787109 64.6159668 38.19287109 C62.3059668 38.85287109 59.9959668 39.51287109 57.6159668 40.19287109 C57.6159668 41.84287109 57.6159668 43.49287109 57.6159668 45.19287109 C58.2759668 45.52287109 58.9359668 45.85287109 59.6159668 46.19287109 C61.53646905 44.94877215 63.45221993 43.69733674 65.3659668 42.44287109 C66.43331055 41.74677734 67.5006543 41.05068359 68.6003418 40.33349609 C71.61559335 38.31959476 71.61559335 38.31959476 73.8815918 35.92724609 C74.45393555 35.35490234 75.0262793 34.78255859 75.6159668 34.19287109 C76.2759668 34.19287109 76.9359668 34.19287109 77.6159668 34.19287109 C77.8222168 33.61537109 78.0284668 33.03787109 78.2409668 32.44287109 C80.10766502 29.388274 82.6301575 28.09870682 85.6159668 26.19287109 C85.9459668 25.53287109 86.2759668 24.87287109 86.6159668 24.19287109 C90.06990879 23.70140109 93.18214563 23.49793109 96.6159668 24.19287109 C99.2322115 26.52296403 100.93677761 29.13483549 102.6159668 32.19287109 C103.9359668 31.86287109 105.2559668 31.53287109 106.6159668 31.19287109 C106.6159668 36.14287109 106.6159668 41.09287109 106.6159668 46.19287109 C104.3059668 45.86287109 101.9959668 45.53287109 99.6159668 45.19287109 C98.6259668 45.68787109 98.6259668 45.68787109 97.6159668 46.19287109 C97.9459668 47.18287109 98.2759668 48.17287109 98.6159668 49.19287109 C99.2759668 49.19287109 99.9359668 49.19287109 100.6159668 49.19287109 C100.3478418 50.28599609 100.0797168 51.37912109 99.8034668 52.50537109 C99.25698657 56.58240123 100.2114975 58.93049914 102.0534668 62.56787109 C104.66664638 67.87497457 106.02115648 72.32014731 104.6159668 78.19287109 C102.63216509 81.84692531 100.40095832 85.30037533 96.6159668 87.19287109 C94.74539888 87.4203726 92.86910722 87.6024992 90.9909668 87.75537109 C89.98807617 87.83916016 88.98518555 87.92294922 87.9519043 88.00927734 C87.18104492 88.06986328 86.41018555 88.13044922 85.6159668 88.19287109 C86.6059668 89.67787109 86.6059668 89.67787109 87.6159668 91.19287109 C87.6159668 92.51287109 87.6159668 93.83287109 87.6159668 95.19287109 C63.8559668 95.19287109 40.0959668 95.19287109 15.6159668 95.19287109 C15.2859668 93.54287109 14.9559668 91.89287109 14.6159668 90.19287109 C15.2759668 89.20287109 15.9359668 88.21287109 16.6159668 87.19287109 C20.2409668 86.50537109 20.2409668 86.50537109 23.6159668 86.19287109 C22.68695557 85.56550049 21.75794434 84.93812988 20.80078125 84.29174805 C15.83910203 80.48796099 11.4660468 76.60175855 9.90740967 70.35150146 C8.97239239 62.37635409 9.43121402 54.38029392 9.8034668 46.38037109 C9.86877264 43.93456187 9.9280712 41.48858447 9.98120117 39.04248047 C10.12348712 33.08890168 10.34013618 27.14168052 10.6159668 21.19287109 C9.73553711 21.25087891 8.85510742 21.30888672 7.94799805 21.36865234 C-1.49840942 21.73560491 -1.49840942 21.73560491 -5.6730957 19.17724609 C-7.7797325 15.50265588 -7.98893248 12.55727544 -7.7590332 8.44287109 C-7.74485352 7.75837891 -7.73067383 7.07388672 -7.71606445 6.36865234 C-7.51683078 -0.33888126 -6.45906874 0.06856527 0 0 Z M23.6159668 13.19287109 C23.6159668 31.01287109 23.6159668 48.83287109 23.6159668 67.19287109 C24.2759668 67.19287109 24.9359668 67.19287109 25.6159668 67.19287109 C25.6159668 49.37287109 25.6159668 31.55287109 25.6159668 13.19287109 C24.9559668 13.19287109 24.2959668 13.19287109 23.6159668 13.19287109 Z M37.6159668 13.19287109 C37.6159668 20.12287109 37.6159668 27.05287109 37.6159668 34.19287109 C37.9459668 34.19287109 38.2759668 34.19287109 38.6159668 34.19287109 C38.6159668 27.26287109 38.6159668 20.33287109 38.6159668 13.19287109 C38.2859668 13.19287109 37.9559668 13.19287109 37.6159668 13.19287109 Z M48.6159668 33.19287109 C48.9459668 34.51287109 49.2759668 35.83287109 49.6159668 37.19287109 C52.2559668 36.20287109 54.8959668 35.21287109 57.6159668 34.19287109 C57.6159668 33.86287109 57.6159668 33.53287109 57.6159668 33.19287109 C54.6459668 33.19287109 51.6759668 33.19287109 48.6159668 33.19287109 Z M50.8034668 39.38037109 C48.36816464 41.93642572 48.36816464 41.93642572 48.5534668 44.75537109 C49.78654414 47.58419559 51.30281962 49.17819452 53.6159668 51.19287109 C55.2433908 50.02610614 55.2433908 50.02610614 56.6159668 48.19287109 C56.76230751 45.66629343 56.76230751 45.66629343 56.3034668 43.00537109 C56.18358398 42.10431641 56.06370117 41.20326172 55.94018555 40.27490234 C55.83319336 39.58783203 55.72620117 38.90076172 55.6159668 38.19287109 C56.2759668 37.86287109 56.9359668 37.53287109 57.6159668 37.19287109 C53.54836024 36.78357735 53.54836024 36.78357735 50.8034668 39.38037109 Z M37.6159668 49.19287109 C37.6159668 54.14287109 37.6159668 59.09287109 37.6159668 64.19287109 C37.9459668 64.19287109 38.2759668 64.19287109 38.6159668 64.19287109 C38.6159668 59.24287109 38.6159668 54.29287109 38.6159668 49.19287109 C38.2859668 49.19287109 37.9559668 49.19287109 37.6159668 49.19287109 Z M48.6159668 51.19287109 C48.6159668 53.17287109 48.6159668 55.15287109 48.6159668 57.19287109 C49.2759668 55.87287109 49.9359668 54.55287109 50.6159668 53.19287109 C49.9559668 52.53287109 49.2959668 51.87287109 48.6159668 51.19287109 Z M64.6159668 86.19287109 C64.6159668 86.52287109 64.6159668 86.85287109 64.6159668 87.19287109 C69.5659668 87.19287109 74.5159668 87.19287109 79.6159668 87.19287109 C79.6159668 86.86287109 79.6159668 86.53287109 79.6159668 86.19287109 C74.6659668 86.19287109 69.7159668 86.19287109 64.6159668 86.19287109 Z " fill="#F69C3C" transform="translate(10.384033203125,4.80712890625)"/>
<path d="M0 0 C0.66671722 -0.00817749 1.33343445 -0.01635498 2.02035522 -0.02478027 C4.23581025 -0.04967571 6.45120098 -0.0661615 8.66674805 -0.08056641 C9.42208517 -0.08589008 10.17742229 -0.09121376 10.95564842 -0.09669876 C14.95430869 -0.12344961 18.95293754 -0.1428174 22.95166016 -0.15722656 C27.08474162 -0.17387093 31.2170251 -0.21864008 35.34980488 -0.26959801 C38.52482529 -0.30323975 41.69965574 -0.31480059 44.87483788 -0.32045364 C46.39831827 -0.32717581 47.92178574 -0.34242316 49.44509315 -0.36634445 C51.57864092 -0.39793413 53.7100302 -0.39804385 55.84375 -0.390625 C57.05762894 -0.39871185 58.27150787 -0.40679871 59.52217102 -0.41513062 C62.6159668 0.19287109 62.6159668 0.19287109 65.01261902 2.49594116 C67.09603786 6.00038025 67.09971791 8.99267872 66.9284668 12.94287109 C66.91879883 13.62736328 66.90913086 14.31185547 66.89916992 15.01708984 C66.78515848 20.02367941 66.78515848 20.02367941 65.6159668 21.19287109 C62.75329113 21.26612277 59.9152478 21.28525314 57.0534668 21.25537109 C56.2471582 21.25085938 55.44084961 21.24634766 54.61010742 21.24169922 C52.61202923 21.22987627 50.61398897 21.21194023 48.6159668 21.19287109 C48.6159668 24.16287109 48.6159668 27.13287109 48.6159668 30.19287109 C47.9559668 30.19287109 47.2959668 30.19287109 46.6159668 30.19287109 C46.6159668 25.57287109 46.6159668 20.95287109 46.6159668 16.19287109 C52.5559668 16.19287109 58.4959668 16.19287109 64.6159668 16.19287109 C64.5128418 14.76974609 64.4097168 13.34662109 64.3034668 11.88037109 C64.24545898 11.07986328 64.18745117 10.27935547 64.12768555 9.45458984 C63.49881185 6.67506412 62.88711853 5.89857808 60.6159668 4.19287109 C57.81162703 3.71842408 57.81162703 3.71842408 54.58398438 3.76049805 C53.34292435 3.74070389 52.10186432 3.72090973 50.82319641 3.70051575 C49.46896516 3.693746 48.11473227 3.68729913 46.76049805 3.68115234 C45.37471418 3.66430705 43.98894561 3.646157 42.60319519 3.62675476 C38.95855488 3.57923171 35.31397657 3.54943766 31.66912842 3.52331543 C27.94880934 3.49352126 24.22870396 3.4469871 20.50854492 3.40185547 C13.21112485 3.31579632 5.91368929 3.24846306 -1.3840332 3.19287109 C-1.27159493 4.65081446 -1.14524968 6.1076904 -1.01293945 7.56396484 C-0.94405518 8.37534912 -0.8751709 9.1867334 -0.80419922 10.02270508 C-0.55213427 12.40963812 -0.55213427 12.40963812 1.6784668 14.25537109 C2.3178418 14.56474609 2.9572168 14.87412109 3.6159668 15.19287109 C3.6159668 12.88287109 3.6159668 10.57287109 3.6159668 8.19287109 C12.8559668 8.19287109 22.0959668 8.19287109 31.6159668 8.19287109 C31.6159668 28.98287109 31.6159668 49.77287109 31.6159668 71.19287109 C28.3159668 71.19287109 25.0159668 71.19287109 21.6159668 71.19287109 C21.6159668 52.71287109 21.6159668 34.23287109 21.6159668 15.19287109 C19.9659668 15.19287109 18.3159668 15.19287109 16.6159668 15.19287109 C16.55598201 22.59499401 16.5585245 29.99523871 16.60375977 37.39746094 C16.6118517 39.91340605 16.60582968 42.42943891 16.58520508 44.9453125 C16.55796842 48.57065466 16.58212368 52.19264631 16.6159668 55.81787109 C16.59655029 56.93589111 16.57713379 58.05391113 16.55712891 59.20581055 C16.66516396 65.10649711 17.18888334 68.44790577 21.44799805 72.70849609 C22.83181935 73.8765039 24.22108177 75.03809865 25.6159668 76.19287109 C26.86928305 77.54589514 28.10213466 78.91848666 29.3034668 80.31787109 C29.86549805 80.97013672 30.4275293 81.62240234 31.0065918 82.29443359 C33.22688088 84.91351247 35.4309008 87.54430625 37.6159668 90.19287109 C33.94209184 91.04585486 30.57122749 91.3007658 26.8034668 91.25537109 C25.33973633 91.24183594 25.33973633 91.24183594 23.84643555 91.22802734 C23.11038086 91.21642578 22.37432617 91.20482422 21.6159668 91.19287109 C21.6159668 92.51287109 21.6159668 93.83287109 21.6159668 95.19287109 C19.6359668 95.19287109 17.6559668 95.19287109 15.6159668 95.19287109 C14.9909668 92.88037109 14.9909668 92.88037109 14.6159668 90.19287109 C15.2759668 89.20287109 15.9359668 88.21287109 16.6159668 87.19287109 C20.2409668 86.50537109 20.2409668 86.50537109 23.6159668 86.19287109 C22.68695557 85.56550049 21.75794434 84.93812988 20.80078125 84.29174805 C15.83910203 80.48796099 11.4660468 76.60175855 9.90740967 70.35150146 C8.97239239 62.37635409 9.43121402 54.38029392 9.8034668 46.38037109 C9.86877264 43.93456187 9.9280712 41.48858447 9.98120117 39.04248047 C10.12348712 33.08890168 10.34013618 27.14168052 10.6159668 21.19287109 C9.73553711 21.25087891 8.85510742 21.30888672 7.94799805 21.36865234 C-1.49840942 21.73560491 -1.49840942 21.73560491 -5.6730957 19.17724609 C-7.7797325 15.50265588 -7.98893248 12.55727544 -7.7590332 8.44287109 C-7.74485352 7.75837891 -7.73067383 7.07388672 -7.71606445 6.36865234 C-7.51683078 -0.33888126 -6.45906874 0.06856527 0 0 Z M23.6159668 13.19287109 C23.6159668 31.01287109 23.6159668 48.83287109 23.6159668 67.19287109 C24.2759668 67.19287109 24.9359668 67.19287109 25.6159668 67.19287109 C25.6159668 49.37287109 25.6159668 31.55287109 25.6159668 13.19287109 C24.9559668 13.19287109 24.2959668 13.19287109 23.6159668 13.19287109 Z " fill="#C3C2C1" transform="translate(10.384033203125,4.80712890625)"/>
<path d="M0 0 C3.65650299 1.21883433 3.848687 2.0548231 5.5625 5.375 C6.95394269 8.03651344 8.3291777 10.49376655 10 13 C9.030625 13.61875 8.06125 14.2375 7.0625 14.875 C3.97164638 16.65678846 3.97164638 16.65678846 3 19 C3.99 19 4.98 19 6 19 C6.226875 18.401875 6.45375 17.80375 6.6875 17.1875 C8.33811133 14.43648112 10.1972081 13.47515363 13 12 C12.505 7.545 12.505 7.545 12 3 C14 3 16 3 18 3 C18 7.95 18 12.9 18 18 C15.69 17.67 13.38 17.34 11 17 C10.01 17.495 10.01 17.495 9 18 C9.495 19.485 9.495 19.485 10 21 C10.66 21 11.32 21 12 21 C11.7215625 22.8253125 11.7215625 22.8253125 11.4375 24.6875 C11.01006818 28.02977939 11.07741117 30.71968417 12 34 C9.55999015 31.22343707 7.74725969 28.66305616 6.375 25.25 C5.38084689 21.91980434 5.38084689 21.91980434 3 21 C3.93614567 22.72990025 4.87397958 24.45888696 5.8125 26.1875 C6.59560547 27.63189453 6.59560547 27.63189453 7.39453125 29.10546875 C8.93467882 31.97902249 8.93467882 31.97902249 10.671875 34.48828125 C13.08909446 39.05966982 12.62669642 43.97250204 12 49 C10.23824919 52.2625015 8.89348115 53.43838327 5.8125 55.375 C1.82827077 56.26038427 -2.04154897 56.01414861 -6 55 C-6.33 54.34 -6.66 53.68 -7 53 C-4.03 52.505 -4.03 52.505 -1 52 C-2.77437433 48.60970964 -2.77437433 48.60970964 -6.75 48.0625 C-10.0080274 47.7414535 -11.78040646 48.11148719 -14.5 49.9375 C-15.7375 50.9584375 -15.7375 50.9584375 -17 52 C-17.66 51.67 -18.32 51.34 -19 51 C-19 50.01 -19 49.02 -19 48 C-20.65 47.34 -22.3 46.68 -24 46 C-22.515 45.505 -22.515 45.505 -21 45 C-20.26676204 42.98491642 -20.26676204 42.98491642 -20 41 C-19.38125 40.938125 -18.7625 40.87625 -18.125 40.8125 C-15.72882071 40.18259554 -15.72882071 40.18259554 -14.875 37.5 C-14.58625 36.675 -14.2975 35.85 -14 35 C-13.01 34.505 -13.01 34.505 -12 34 C-11.9690625 32.1128125 -11.9690625 32.1128125 -11.9375 30.1875 C-11.92589844 29.47980469 -11.91429688 28.77210937 -11.90234375 28.04296875 C-11.91736783 25.79694539 -11.91736783 25.79694539 -13 23 C-15.10584438 22.19436362 -15.10584438 22.19436362 -17.5625 21.8125 C-18.80193359 21.57466797 -18.80193359 21.57466797 -20.06640625 21.33203125 C-20.70449219 21.22246094 -21.34257813 21.11289062 -22 21 C-22 21.66 -22 22.32 -22 23 C-20.02 23.66 -18.04 24.32 -16 25 C-15.44016227 34.51724138 -15.44016227 34.51724138 -19 39 C-19.474375 39.598125 -19.94875 40.19625 -20.4375 40.8125 C-22 42 -22 42 -26 42 C-26 41.34 -26 40.68 -26 40 C-24.02 39.505 -24.02 39.505 -22 39 C-22 38.34 -22 37.68 -22 37 C-22.66 36.67 -23.32 36.34 -24 36 C-24 31.38 -24 26.76 -24 22 C-24.99 21.67 -25.98 21.34 -27 21 C-26.43539062 20.74476562 -25.87078125 20.48953125 -25.2890625 20.2265625 C-21.86521169 18.39193937 -19.02762758 15.9062085 -16.0234375 13.4609375 C-14 12 -14 12 -12 12 C-11.67 11.01 -11.34 10.02 -11 9 C-9.66666667 8.33333333 -8.33333333 7.66666667 -7 7 C-6.67 6.01 -6.34 5.02 -6 4 C-3.125 1.75 -3.125 1.75 0 0 Z " fill="#F8F8F7" transform="translate(99,33)"/>
<path d="M0 0 C8.03195042 -0.06948318 16.06377545 -0.12280239 24.09595203 -0.15543652 C27.82555055 -0.17109859 31.55494358 -0.19234629 35.28442383 -0.22631836 C38.88299774 -0.25889319 42.48137389 -0.27684894 46.08008385 -0.28463173 C47.45364178 -0.29017868 48.82718878 -0.30101052 50.20066261 -0.31719017 C52.12300707 -0.33893676 54.04555015 -0.34022517 55.96801758 -0.34057617 C57.06277908 -0.34723801 58.15754059 -0.35389984 59.28547668 -0.36076355 C62 0 62 0 63.8769989 1.39628601 C65 3 65 3 65 5 C55.43 5 45.86 5 36 5 C36 23.48 36 41.96 36 61 C38.97 60.34 41.94 59.68 45 59 C45 56.36 45 53.72 45 51 C48.67230705 54.07999946 49.56802365 56.2482602 50 61 C47.02819057 62.89865603 44.48539917 64.35455571 41 65 C41.99 65.66 42.98 66.32 44 67 C39.545 67.99 39.545 67.99 35 69 C35.64162473 72.0885008 35.64162473 72.0885008 37.85546875 72.95703125 C38.91701172 73.47330078 38.91701172 73.47330078 40 74 C41.67578125 75.69921875 41.67578125 75.69921875 43.3125 77.6875 C46.2800859 81.20749366 49.4027336 84.45670341 52.71484375 87.65234375 C54 89 54 89 54 90 C44.1 90 34.2 90 24 90 C23.505 89.01 23.505 89.01 23 88 C30.425 87.01 30.425 87.01 38 86 C36.329375 84.35 34.65875 82.7 32.9375 81 C28.90193578 76.98891183 25.02788644 72.89587623 21.33984375 68.55859375 C20.27935864 67.32496821 19.15031749 66.15031749 18 65 C17.75949097 62.74740601 17.75949097 62.74740601 17.77294922 59.90771484 C17.77310028 58.84676605 17.77325134 57.78581726 17.77340698 56.69271851 C17.78889084 54.96923691 17.78889084 54.96923691 17.8046875 53.2109375 C17.8075174 52.03737701 17.81034729 50.86381653 17.81326294 49.6546936 C17.82448645 45.89469338 17.84959508 42.13492861 17.875 38.375 C17.88502699 35.8307326 17.89415332 33.28646148 17.90234375 30.7421875 C17.92443286 24.4947109 17.95793176 18.24737227 18 12 C19.65 12 21.3 12 23 12 C23 30.48 23 48.96 23 68 C26.3 68 29.6 68 33 68 C33 47.21 33 26.42 33 5 C23.76 5 14.52 5 5 5 C5 7.31 5 9.62 5 12 C1.125 10.125 1.125 10.125 0 9 C-0.07179964 7.48071962 -0.08392007 5.95832518 -0.0625 4.4375 C-0.05347656 3.61121094 -0.04445313 2.78492188 -0.03515625 1.93359375 C-0.02355469 1.29550781 -0.01195312 0.65742188 0 0 Z " fill="#F28005" transform="translate(9,8)"/>
<path d="M0 0 C3 1 3 1 4.38671875 3.21484375 C5.03060547 4.56255859 5.03060547 4.56255859 5.6875 5.9375 C6.12449219 6.83339844 6.56148438 7.72929688 7.01171875 8.65234375 C8 11 8 11 8 13 C8.66 13 9.32 13 10 13 C13.27443846 18.18452756 14.1670525 23.01770727 13 29 C11.04155839 32.65935114 8.77604658 36.11197671 5 38 C3.12943209 38.2275015 1.25314042 38.40962811 -0.625 38.5625 C-1.62789063 38.64628906 -2.63078125 38.73007813 -3.6640625 38.81640625 C-4.43492188 38.87699219 -5.20578125 38.93757813 -6 39 C-5.34 39.99 -4.68 40.98 -4 42 C-4 43.32 -4 44.64 -4 46 C-25.78 46 -47.56 46 -70 46 C-69.67 45.01 -69.34 44.02 -69 43 C-59.43 43 -49.86 43 -40 43 C-42.02125 40.999375 -44.0425 38.99875 -46.125 36.9375 C-50.62738754 32.45298573 -55.03893708 27.97962196 -59 23 C-59 22.67 -59 22.34 -59 22 C-56.91695462 21.94581674 -54.83350232 21.90712449 -52.75 21.875 C-51.58984375 21.85179688 -50.4296875 21.82859375 -49.234375 21.8046875 C-46.17213954 21.9896051 -44.55797249 22.39176977 -42 24 C-42 24.66 -42 25.32 -42 26 C-41.01 26.66 -40.02 27.32 -39 28 C-39 27.34 -39 26.68 -39 26 C-39.66 25.67 -40.32 25.34 -41 25 C-35.09365753 23.31247358 -29.21052487 23.1855961 -23.4375 25.3125 C-21 27 -21 27 -20 30 C-19.175 29.319375 -18.35 28.63875 -17.5 27.9375 C-14.70118888 26.02921969 -12.96943147 25.80367907 -9.625 26.25 C-8.42875 26.4975 -7.2325 26.745 -6 27 C-5.505 28.485 -5.505 28.485 -5 30 C-4.34 30.33 -3.68 30.66 -3 31 C-4.98 31.66 -6.96 32.32 -9 33 C-3.12514042 34.08358521 0.82102482 34.5368611 6 31 C9.18797016 26.21804475 8.98143018 21.57630783 8 16 C6.14354764 12.29114866 4.12245522 9.11289159 1.75 5.71484375 C0 3 0 3 0 0 Z M-27 37 C-27 37.33 -27 37.66 -27 38 C-22.05 38 -17.1 38 -12 38 C-12 37.67 -12 37.34 -12 37 C-16.95 37 -21.9 37 -27 37 Z " fill="#F0810B" transform="translate(102,54)"/>
<path d="M0 0 C0.66671722 -0.00817749 1.33343445 -0.01635498 2.02035522 -0.02478027 C4.23581025 -0.04967571 6.45120098 -0.0661615 8.66674805 -0.08056641 C9.42208517 -0.08589008 10.17742229 -0.09121376 10.95564842 -0.09669876 C14.95430869 -0.12344961 18.95293754 -0.1428174 22.95166016 -0.15722656 C27.08474162 -0.17387093 31.2170251 -0.21864008 35.34980488 -0.26959801 C38.52482529 -0.30323975 41.69965574 -0.31480059 44.87483788 -0.32045364 C46.39831827 -0.32717581 47.92178574 -0.34242316 49.44509315 -0.36634445 C51.57864092 -0.39793413 53.7100302 -0.39804385 55.84375 -0.390625 C57.05762894 -0.39871185 58.27150787 -0.40679871 59.52217102 -0.41513062 C62.6159668 0.19287109 62.6159668 0.19287109 65.01261902 2.49594116 C67.09603786 6.00038025 67.09971791 8.99267872 66.9284668 12.94287109 C66.91879883 13.62736328 66.90913086 14.31185547 66.89916992 15.01708984 C66.78515848 20.02367941 66.78515848 20.02367941 65.6159668 21.19287109 C62.75329113 21.26612277 59.9152478 21.28525314 57.0534668 21.25537109 C56.2471582 21.25085938 55.44084961 21.24634766 54.61010742 21.24169922 C52.61202923 21.22987627 50.61398897 21.21194023 48.6159668 21.19287109 C48.6159668 24.16287109 48.6159668 27.13287109 48.6159668 30.19287109 C47.9559668 30.19287109 47.2959668 30.19287109 46.6159668 30.19287109 C46.6159668 25.57287109 46.6159668 20.95287109 46.6159668 16.19287109 C52.5559668 16.19287109 58.4959668 16.19287109 64.6159668 16.19287109 C64.5128418 14.76974609 64.4097168 13.34662109 64.3034668 11.88037109 C64.24545898 11.07986328 64.18745117 10.27935547 64.12768555 9.45458984 C63.49756553 6.66955556 62.90164416 5.89181355 60.6159668 4.19287109 C57.72830125 3.75614866 57.72830125 3.75614866 54.40039062 3.85229492 C52.47873833 3.85263481 52.47873833 3.85263481 50.51826477 3.85298157 C49.11983898 3.86830152 47.72141676 3.88394951 46.32299805 3.89990234 C44.89239445 3.90549842 43.46178511 3.90976846 42.03117371 3.9127655 C38.26795547 3.92421353 34.50508524 3.95367994 30.74200439 3.98687744 C26.90121163 4.01757947 23.06036256 4.0312711 19.21948242 4.04638672 C11.68481865 4.07855004 4.15044151 4.12974543 -3.3840332 4.19287109 C-3.43803057 5.65079994 -3.47682497 7.10929821 -3.5090332 8.56787109 C-3.54383789 9.78603516 -3.54383789 9.78603516 -3.5793457 11.02880859 C-3.59773371 13.40629353 -3.59773371 13.40629353 -1.3840332 15.19287109 C1.18513337 15.49886172 3.66355064 15.70374197 6.2409668 15.81787109 C7.30057617 15.87587891 7.30057617 15.87587891 8.3815918 15.93505859 C10.12595204 16.02934834 11.87092371 16.1122 13.6159668 16.19287109 C13.61295059 16.85162231 13.60993439 17.51037354 13.60682678 18.18908691 C13.58219523 25.06814322 13.6064722 31.94581394 13.65869141 38.82470703 C13.67180161 41.38912673 13.67259265 43.95364103 13.66064453 46.51806641 C13.6455966 50.21269262 13.67537592 53.90470838 13.71362305 57.59912109 C13.69936783 58.73901489 13.68511261 59.87890869 13.67042542 61.05334473 C13.79581376 68.00408953 14.87090841 71.74401691 19.88565063 76.66665649 C20.45665497 77.17030731 21.0276593 77.67395813 21.6159668 78.19287109 C22.39584961 78.93279297 23.17573242 79.67271484 23.97924805 80.43505859 C24.62249023 80.97388672 25.26573242 81.51271484 25.9284668 82.06787109 C27.9014926 83.73467089 29.78830621 85.36521051 31.6159668 87.19287109 C31.6159668 88.18287109 31.6159668 89.17287109 31.6159668 90.19287109 C26.6659668 90.68787109 26.6659668 90.68787109 21.6159668 91.19287109 C21.6159668 92.51287109 21.6159668 93.83287109 21.6159668 95.19287109 C19.6359668 95.19287109 17.6559668 95.19287109 15.6159668 95.19287109 C14.9909668 92.88037109 14.9909668 92.88037109 14.6159668 90.19287109 C15.2759668 89.20287109 15.9359668 88.21287109 16.6159668 87.19287109 C20.2409668 86.50537109 20.2409668 86.50537109 23.6159668 86.19287109 C22.68695557 85.56550049 21.75794434 84.93812988 20.80078125 84.29174805 C15.83910203 80.48796099 11.4660468 76.60175855 9.90740967 70.35150146 C8.97239239 62.37635409 9.43121402 54.38029392 9.8034668 46.38037109 C9.86877264 43.93456187 9.9280712 41.48858447 9.98120117 39.04248047 C10.12348712 33.08890168 10.34013618 27.14168052 10.6159668 21.19287109 C9.73553711 21.25087891 8.85510742 21.30888672 7.94799805 21.36865234 C-1.49840942 21.73560491 -1.49840942 21.73560491 -5.6730957 19.17724609 C-7.7797325 15.50265588 -7.98893248 12.55727544 -7.7590332 8.44287109 C-7.74485352 7.75837891 -7.73067383 7.07388672 -7.71606445 6.36865234 C-7.51683078 -0.33888126 -6.45906874 0.06856527 0 0 Z " fill="#EEEEEE" transform="translate(10.384033203125,4.80712890625)"/>
<path d="M0 0 C9.05719673 -0.7778127 9.05719673 -0.7778127 12.5 2.0625 C14.6333896 6.24038798 16 9.95761956 16 14.6875 C14.53751871 18.06948798 12.12191031 19.20656216 9 21 C9.495 22.98 9.495 22.98 10 25 C7.525 24.01 7.525 24.01 5 23 C6.39332574 19.63279613 7.9789286 18.0140476 11 16 C10.401875 15.29875 9.80375 14.5975 9.1875 13.875 C7.02259039 11.02969023 5.50403364 8.23367233 4 5 C3.236875 5.309375 2.47375 5.61875 1.6875 5.9375 C-0.18789677 6.67893593 -2.08684652 7.36228217 -4 8 C-4.144375 8.639375 -4.28875 9.27875 -4.4375 9.9375 C-4.623125 10.618125 -4.80875 11.29875 -5 12 C-6.31403276 12.70394612 -7.6520257 13.36345658 -9 14 C-9.763125 14.763125 -10.52625 15.52625 -11.3125 16.3125 C-15.07156805 20.07156805 -18.92122434 23.30707478 -24 25 C-23.50757812 25.37125 -23.01515625 25.7425 -22.5078125 26.125 C-20.37204482 28.78087691 -20.73512415 30.64297961 -20.875 34 C-21.04861081 38.57893957 -21.04861081 38.57893957 -20 43 C-21.98 43.495 -21.98 43.495 -24 44 C-24 44.66 -24 45.32 -24 46 C-20.61241064 44.8097659 -18.21931902 43.86045563 -16 41 C-15.20531949 38.04478923 -15.20531949 38.04478923 -14.8125 34.8125 C-14.65394531 33.72582031 -14.49539062 32.63914063 -14.33203125 31.51953125 C-14.22246094 30.68808594 -14.11289063 29.85664062 -14 29 C-15.98 28.34 -17.96 27.68 -20 27 C-20 26.34 -20 25.68 -20 25 C-18.53890937 25.25554054 -17.08111904 25.53000372 -15.625 25.8125 C-14.81289062 25.96332031 -14.00078125 26.11414063 -13.1640625 26.26953125 C-11 27 -11 27 -9 30 C-8.74239721 32.69452521 -8.91099947 35.28548375 -9 38 C-10.485 38.495 -10.485 38.495 -12 39 C-12.309375 39.804375 -12.61875 40.60875 -12.9375 41.4375 C-14.20796865 44.50157145 -15.09347216 44.68737452 -18 46 C-18.33 46.99 -18.66 47.98 -19 49 C-22.63 49 -26.26 49 -30 49 C-30.99 45.535 -30.99 45.535 -32 42 C-31.01 42 -30.02 42 -29 42 C-29.45098238 40.06077578 -29.91105559 38.12366406 -30.375 36.1875 C-30.63023438 35.10855469 -30.88546875 34.02960937 -31.1484375 32.91796875 C-31.88732881 29.84466657 -31.88732881 29.84466657 -34 27 C-33.484375 26.67 -32.96875 26.34 -32.4375 26 C-30.78902771 24.15518077 -30.78902771 24.15518077 -31.12890625 22.125 C-31.31259766 21.073125 -31.31259766 21.073125 -31.5 20 C-32.11111111 16.20833333 -32.11111111 16.20833333 -31 14.125 C-28.13521061 12.51355597 -25.17834729 11.77959462 -22 11 C-22 11.99 -22 12.98 -22 14 C-24.31 14.66 -26.62 15.32 -29 16 C-29 17.65 -29 19.3 -29 21 C-28.34 21.33 -27.68 21.66 -27 22 C-25.07949774 20.75590105 -23.16374686 19.50446565 -21.25 18.25 C-19.64898437 17.20585938 -19.64898437 17.20585938 -18.015625 16.140625 C-15.00037345 14.12672367 -15.00037345 14.12672367 -12.734375 11.734375 C-12.16203125 11.16203125 -11.5896875 10.5896875 -11 10 C-10.34 10 -9.68 10 -9 10 C-8.79375 9.4225 -8.5875 8.845 -8.375 8.25 C-6.50830178 5.19540291 -3.9858093 3.90583572 -1 2 C-0.67 1.34 -0.34 0.68 0 0 Z " fill="#F5DABD" transform="translate(97,29)"/>
<path d="M0 0 C3.65650299 1.21883433 3.848687 2.0548231 5.5625 5.375 C6.95394269 8.03651344 8.3291777 10.49376655 10 13 C9.030625 13.61875 8.06125 14.2375 7.0625 14.875 C3.97164638 16.65678846 3.97164638 16.65678846 3 19 C3.99 19 4.98 19 6 19 C6.226875 18.401875 6.45375 17.80375 6.6875 17.1875 C8.33811133 14.43648112 10.1972081 13.47515363 13 12 C12.67 9.03 12.34 6.06 12 3 C14 3 16 3 18 3 C18 7.95 18 12.9 18 18 C15.69 17.67 13.38 17.34 11 17 C10.34 17.33 9.68 17.66 9 18 C9.33 18.99 9.66 19.98 10 21 C10.66 21 11.32 21 12 21 C11.814375 22.216875 11.62875 23.43375 11.4375 24.6875 C11.01006818 28.02977939 11.07741117 30.71968417 12 34 C9.55999015 31.22343707 7.74725969 28.66305616 6.375 25.25 C5.38084689 21.91980434 5.38084689 21.91980434 3 21 C2.67 21.66 2.34 22.32 2 23 C2 22.34 2 21.68 2 21 C0.02 21.66 -1.96 22.32 -4 23 C-3.34 23.66 -2.68 24.32 -2 25 C-1.8046875 27.1640625 -1.8046875 27.1640625 -1.875 29.625 C-1.89304687 30.44226563 -1.91109375 31.25953125 -1.9296875 32.1015625 C-1.95289062 32.72804687 -1.97609375 33.35453125 -2 34 C-1.01 34 -0.02 34 1 34 C0.01 33.34 -0.98 32.68 -2 32 C-2 31.34 -2 30.68 -2 30 C1.32310483 31.16757737 3.83361132 32.14948857 6 35 C6 35.99 6 36.98 6 38 C4.02 38.495 4.02 38.495 2 39 C2 38.01 2 37.02 2 36 C1.34 36 0.68 36 0 36 C0 38.31 0 40.62 0 43 C-0.99 43.495 -0.99 43.495 -2 44 C-2 42.02 -2 40.04 -2 38 C-2.928125 39.4540625 -2.928125 39.4540625 -3.875 40.9375 C-6 44 -6 44 -8 45 C-7.505 43.63875 -7.505 43.63875 -7 42.25 C-5.50929897 37.01645968 -5.26856863 31.37955979 -6 26 C-7.46219854 24.33426349 -7.46219854 24.33426349 -9 23 C-9 22.01 -9 21.02 -9 20 C-9.99 19.67 -10.98 19.34 -12 19 C-13.1875 15.4375 -13.1875 15.4375 -14 12 C-13.34 12 -12.68 12 -12 12 C-11.67 11.01 -11.34 10.02 -11 9 C-9.66666667 8.33333333 -8.33333333 7.66666667 -7 7 C-6.67 6.01 -6.34 5.02 -6 4 C-3.125 1.75 -3.125 1.75 0 0 Z " fill="#D4D4D4" transform="translate(99,33)"/>
<path d="M0 0 C9.24 0 18.48 0 28 0 C28 1.98 28 3.96 28 6 C22.06 6 16.12 6 10 6 C10 11.61 10 17.22 10 23 C8.02 23.66 6.04 24.32 4 25 C1.57788045 29.52831047 1.97718922 33.07191167 3 38 C3.33 38.99 3.66 39.98 4 41 C3.91255992 43.5808926 3.77131505 46.11691478 3.5625 48.6875 C3.51029297 49.38939453 3.45808594 50.09128906 3.40429688 50.81445312 C3.27492135 52.54338054 3.13817469 54.27175355 3 56 C2.01 56 1.02 56 0 56 C0 37.52 0 19.04 0 0 Z " fill="#E6E5E5" transform="translate(45,13)"/>
<path d="M0 0 C1.9140625 2.23046875 1.9140625 2.23046875 3.625 5.1875 C4.19476563 6.15042969 4.76453125 7.11335938 5.3515625 8.10546875 C5.89554688 9.06066406 6.43953125 10.01585938 7 11 C7.55558594 11.82113281 8.11117187 12.64226562 8.68359375 13.48828125 C11.08257209 18.0655604 10.62647764 22.97425715 10 28 C8.23824919 31.2625015 6.89348115 32.43838327 3.8125 34.375 C-0.17172923 35.26038427 -4.04154897 35.01414861 -8 34 C-8.33 33.34 -8.66 32.68 -9 32 C-7.02 31.67 -5.04 31.34 -3 31 C-3.66 30.401875 -4.32 29.80375 -5 29.1875 C-7 27 -7 27 -7 24 C-6.360625 23.814375 -5.72125 23.62875 -5.0625 23.4375 C-2.57873787 22.05753944 -2.57873787 22.05753944 -2.25 18.375 C-2.1675 17.26125 -2.085 16.1475 -2 15 C-1.34 15 -0.68 15 0 15 C0 15.99 0 16.98 0 18 C1.32 17.67 2.64 17.34 4 17 C1.92856799 12.96615872 0.03384128 11.07143201 -4 9 C-2.68 10.65 -1.36 12.3 0 14 C-1.65 13.67 -3.3 13.34 -5 13 C-4.97679688 12.38511719 -4.95359375 11.77023438 -4.9296875 11.13671875 C-4.91164063 10.32847656 -4.89359375 9.52023438 -4.875 8.6875 C-4.85179688 7.88699219 -4.82859375 7.08648437 -4.8046875 6.26171875 C-4.84182678 3.71611424 -4.84182678 3.71611424 -7 1 C-4.37997422 -0.31001289 -2.90406023 -0.43168463 0 0 Z " fill="#F3F3F3" transform="translate(101,54)"/>
<path d="M0 0 C7.59 0 15.18 0 23 0 C23 19.14 23 38.28 23 58 C21.02 58 19.04 58 17 58 C17 39.85 17 21.7 17 3 C11.39 3 5.78 3 0 3 C0 2.01 0 1.02 0 0 Z M19 2 C19 19.82 19 37.64 19 56 C19.66 56 20.32 56 21 56 C21 38.18 21 20.36 21 2 C20.34 2 19.68 2 19 2 Z " fill="#F3F3F3" transform="translate(15,16)"/>
<path d="M0 0 C0.625 2.3125 0.625 2.3125 1 5 C0.01 6.485 0.01 6.485 -1 8 C-1.02048149 11.44771821 -0.55037297 14.89925406 1 18 C1 19.32 1 20.64 1 22 C1.66 21.34 2.32 20.68 3 20 C2.33333333 24.66666667 1.66666667 29.33333333 1 34 C0.01 34 -0.98 34 -2 34 C-1.6596875 32.39125 -1.6596875 32.39125 -1.3125 30.75 C-0.64224175 27.07021424 -0.64224175 27.07021424 -2.4375 24.5625 C-2.953125 24.046875 -3.46875 23.53125 -4 23 C-3.938125 23.94875 -3.87625 24.8975 -3.8125 25.875 C-3.874375 26.90625 -3.93625 27.9375 -4 29 C-7 31 -7 31 -10 31 C-10.14584726 27.12539922 -10.23425444 23.25150883 -10.3125 19.375 C-10.35439453 18.28058594 -10.39628906 17.18617187 -10.43945312 16.05859375 C-10.57762132 6.93949276 -10.57762132 6.93949276 -7.66796875 3.2890625 C-5.03516713 1.03017268 -3.49199904 0 0 0 Z " fill="#E2D5C8" transform="translate(59,38)"/>
<path d="M0 0 C8.40577556 -0.11587396 16.81121724 -0.20470398 25.21759415 -0.25906086 C29.12109851 -0.28515031 33.02405631 -0.3205346 36.92724609 -0.37719727 C40.69443884 -0.43154313 44.46110608 -0.46142545 48.22866058 -0.47438622 C49.66563948 -0.48362174 51.10258975 -0.50165727 52.53934479 -0.52865028 C54.55231146 -0.56496318 56.56580747 -0.56704255 58.57910156 -0.56762695 C59.72493713 -0.57873001 60.87077271 -0.58983307 62.05133057 -0.60127258 C65 -0 65 -0 67.37469482 2.30207825 C69.4854003 5.80573916 69.48420882 8.78924996 69.3125 12.75 C69.30283203 13.43449219 69.29316406 14.11898438 69.28320312 14.82421875 C69.16919168 19.83080832 69.16919168 19.83080832 68 21 C65.13732433 21.07325168 62.299281 21.09238205 59.4375 21.0625 C58.63119141 21.05798828 57.82488281 21.05347656 56.99414062 21.04882812 C54.99606244 21.03700518 52.99802217 21.01906914 51 21 C51 23.97 51 26.94 51 30 C50.34 30 49.68 30 49 30 C49 25.38 49 20.76 49 16 C54.94 16 60.88 16 67 16 C66.95875 14.618125 66.9175 13.23625 66.875 11.8125 C66.85179688 11.03519531 66.82859375 10.25789062 66.8046875 9.45703125 C65.8592706 6.57029712 64.52135276 4.95993473 62.15304565 3.07344055 C57.30694409 0.65732739 51.58359609 1.27672045 46.2890625 1.29296875 C44.95240029 1.279841 43.61575788 1.26453346 42.27914429 1.24714661 C38.77741973 1.20740784 35.2762154 1.19711355 31.77429199 1.19311523 C28.19442067 1.18376247 24.61485235 1.14633579 21.03515625 1.11132812 C14.02348059 1.04686653 7.01195397 1.0135329 0 1 C0 0.67 0 0.34 0 0 Z " fill="#F8F7F6" transform="translate(8,5)"/>
<path d="M0 0 C3.0625 0.5 3.0625 0.5 5.3125 2.5625 C7.76134436 6.67306018 9.0625 10.37553458 9.0625 15.1875 C7.60001871 18.56948798 5.18441031 19.70656216 2.0625 21.5 C2.5575 23.48 2.5575 23.48 3.0625 25.5 C1.4125 24.84 -0.2375 24.18 -1.9375 23.5 C-0.54417426 20.13279613 1.0414286 18.5140476 4.0625 16.5 C3.464375 15.79875 2.86625 15.0975 2.25 14.375 C0.08509039 11.52969023 -1.43346636 8.73367233 -2.9375 5.5 C-3.700625 5.809375 -4.46375 6.11875 -5.25 6.4375 C-7.12539677 7.17893593 -9.02434652 7.86228217 -10.9375 8.5 C-11.081875 9.139375 -11.22625 9.77875 -11.375 10.4375 C-11.560625 11.118125 -11.74625 11.79875 -11.9375 12.5 C-13.25153276 13.20394612 -14.5895257 13.86345658 -15.9375 14.5 C-16.700625 15.263125 -17.46375 16.02625 -18.25 16.8125 C-21.3280805 19.8905805 -24.25165827 22.17928484 -27.9375 24.5 C-28.9275 24.17 -29.9175 23.84 -30.9375 23.5 C-29.77083333 22.625 -28.60416667 21.75 -27.4375 20.875 C-26.71046875 20.32714844 -25.9834375 19.77929688 -25.234375 19.21484375 C-23.7547855 18.11018424 -22.26578718 17.01796148 -20.765625 15.94140625 C-16.82547486 13.08998181 -13.95386471 10.34846532 -10.9375 6.5 C-9.29607037 5.4590934 -7.63037785 4.45495674 -5.9375 3.5 C-5.463125 2.943125 -4.98875 2.38625 -4.5 1.8125 C-2.9375 0.5 -2.9375 0.5 0 0 Z " fill="#848484" transform="translate(103.9375,28.5)"/>
<path d="M0 0 C0.66 0 1.32 0 2 0 C1.99476318 0.63369507 1.98952637 1.26739014 1.98413086 1.92028809 C1.93729905 8.53987608 1.94655201 15.15773104 1.98779297 21.77734375 C1.995884 24.24478615 1.98986518 26.71231805 1.96923828 29.1796875 C1.94199576 32.73555299 1.96616082 36.28800401 2 39.84375 C1.9805835 40.93989624 1.96116699 42.03604248 1.94116211 43.16540527 C2.05032228 49.01498649 2.61315543 52.28210286 6.83203125 56.50195312 C8.21613722 57.67415672 9.60540318 58.84029732 11 60 C12.25304904 61.35327152 13.48586756 62.72587343 14.6875 64.125 C15.24953125 64.77726562 15.8115625 65.42953125 16.390625 66.1015625 C18.61091409 68.72064137 20.81493401 71.35143516 23 74 C19.16275828 74.90413673 15.62497726 75.10576898 11.6875 75.0625 C10.61886719 75.05347656 9.55023438 75.04445313 8.44921875 75.03515625 C7.64097656 75.02355469 6.83273438 75.01195313 6 75 C6 74.67 6 74.34 6 74 C9.63 74 13.26 74 17 74 C14.39446402 69.15151071 11.09755985 66.37522763 6.86328125 62.96484375 C5 61 5 61 5 57 C4.360625 56.731875 3.72125 56.46375 3.0625 56.1875 C1 55 1 55 0 52 C-0.08770177 50.29716578 -0.11765393 48.59107252 -0.11352539 46.88598633 C-0.11344986 45.84513382 -0.11337433 44.80428131 -0.11329651 43.73188782 C-0.10813522 42.60993515 -0.10297394 41.48798248 -0.09765625 40.33203125 C-0.0962413 39.18208176 -0.09482635 38.03213226 -0.09336853 36.84733582 C-0.08776429 33.16903092 -0.07521104 29.49078655 -0.0625 25.8125 C-0.05748555 23.32096442 -0.05292255 20.82942789 -0.04882812 18.33789062 C-0.03779347 12.22523971 -0.02105118 6.11262418 0 0 Z " fill="#838281" transform="translate(25,21)"/>
<path d="M0 0 C3 1 3 1 4.38671875 3.21484375 C4.81597656 4.11332031 5.24523437 5.01179688 5.6875 5.9375 C6.12449219 6.83339844 6.56148437 7.72929688 7.01171875 8.65234375 C8 11 8 11 8 13 C8.66 13 9.32 13 10 13 C11.77829617 19.67545025 12.48116186 24.45875509 10 31 C7.46139341 34.32645001 5.03855712 35.94646336 1 37 C-2.39230178 37.36945861 -5.61578774 37.48588022 -9 37 C-9.804375 36.34 -10.60875 35.68 -11.4375 35 C-15.51879777 31.81459686 -20.00376541 32.68500097 -25 33 C-23.03207164 31.03207164 -21.53243181 30.14716865 -19.0625 28.9375 C-18.37285156 28.59589844 -17.68320313 28.25429687 -16.97265625 27.90234375 C-12.23426702 25.73488254 -9.90105305 26.42796412 -5 28 C-5 28.66 -5 29.32 -5 30 C-4.34 30.33 -3.68 30.66 -3 31 C-4.98 31.66 -6.96 32.32 -9 33 C-3.12514042 34.08358521 0.82102482 34.5368611 6 31 C9.18797016 26.21804475 8.98143018 21.57630783 8 16 C6.14354764 12.29114866 4.12245522 9.11289159 1.75 5.71484375 C0 3 0 3 0 0 Z " fill="#676767" transform="translate(102,54)"/>
<path d="M0 0 C0.33 0 0.66 0 1 0 C1 2.97 1 5.94 1 9 C-4.94 9 -10.88 9 -17 9 C-17 13.62 -17 18.24 -17 23 C-16.34 22.67 -15.68 22.34 -15 22 C-12.62597499 21.92883618 -10.24999323 21.91590915 -7.875 21.9375 C-6.59367187 21.94652344 -5.31234375 21.95554687 -3.9921875 21.96484375 C-3.00476563 21.97644531 -2.01734375 21.98804687 -1 22 C-1 22.99 -1 23.98 -1 25 C-2.28583984 25.05607422 -2.28583984 25.05607422 -3.59765625 25.11328125 C-14.03245124 25.63120369 -14.03245124 25.63120369 -22.9375 30.625 C-24.59398561 34.32773255 -24.23040019 38.00639672 -24 42 C-26.44703461 39.81089607 -26.99350376 39.02459292 -27.875 35.6875 C-28.01814113 31.46483661 -27.28634278 29.51116927 -25 26 C-22 24 -22 24 -19 24 C-19 18.39 -19 12.78 -19 7 C-13.06 7 -7.12 7 -1 7 C-1 5.02 -1 3.04 -1 1 C-0.67 0.67 -0.34 0.34 0 0 Z " fill="#F48813" transform="translate(74,12)"/>
<path d="M0 0 C2.42868849 2.42868849 2.37537649 3.2705504 2.5 6.625 C2.41539623 12.45419997 0.06607326 15.96552835 -4 20 C-6.56893838 21.28446919 -8.76576337 21.32977144 -11.625 21.5625 C-13.12933594 21.68818359 -13.12933594 21.68818359 -14.6640625 21.81640625 C-15.43492188 21.87699219 -16.20578125 21.93757813 -17 22 C-16.34 22.99 -15.68 23.98 -15 25 C-15 26.32 -15 27.64 -15 29 C-16.98 29 -18.96 29 -21 29 C-20.01 28.67 -19.02 28.34 -18 28 C-18.66 27.01 -19.32 26.02 -20 25 C-21.97730214 24.55850741 -21.97730214 24.55850741 -24.24609375 24.62890625 C-25.08333984 24.61150391 -25.92058594 24.59410156 -26.78320312 24.57617188 C-28.54881239 24.56707749 -30.31444593 24.56185185 -32.08007812 24.56054688 C-33.33788086 24.53250977 -33.33788086 24.53250977 -34.62109375 24.50390625 C-35.3886499 24.50205322 -36.15620605 24.5002002 -36.94702148 24.49829102 C-39 24 -39 24 -42 20 C-36.39 20 -30.78 20 -25 20 C-25.33 19.01 -25.66 18.02 -26 17 C-27.98 17.33 -29.96 17.66 -32 18 C-30.8125 16.4375 -30.8125 16.4375 -29 15 C-26.02383186 15.15262401 -24.44904223 15.63020052 -22.140625 17.53125 C-18.38562297 20.10767475 -14.38161392 19.47186611 -10 19 C-6.9614265 18.42391358 -5.7104513 17.77009064 -3 16 C0.2182021 11.00029316 0.30916647 5.77110741 0 0 Z " fill="#F9F7F5" transform="translate(113,71)"/>
<path d="M0 0 C1.70209877 0.02997826 1.70209877 0.02997826 3.43858337 0.06056213 C4.71983597 0.08065842 6.00108856 0.1007547 7.32116699 0.12145996 C8.73001815 0.14866048 10.13886719 0.17597126 11.54771423 0.2033844 C12.98117341 0.22767555 14.41464023 0.2515196 15.84811401 0.27493286 C19.62772806 0.33787397 23.40720745 0.40691195 27.18669128 0.47718811 C31.04069365 0.54778127 34.89479177 0.61265211 38.74888611 0.67799377 C46.31604927 0.80713526 53.88307937 0.94271296 61.45005798 1.08229065 C61.94505798 2.07229065 61.94505798 2.07229065 62.45005798 3.08229065 C31.76005798 3.57729065 31.76005798 3.57729065 0.45005798 4.08229065 C0.12005798 7.05229065 -0.20994202 10.02229065 -0.54994202 13.08229065 C-1.53994202 12.75229065 -2.52994202 12.42229065 -3.54994202 12.08229065 C-3.57681481 10.26987013 -3.59627917 8.45733832 -3.61244202 6.64479065 C-3.62404358 5.63545471 -3.63564514 4.62611877 -3.64759827 3.5861969 C-3.51481263 0.18157314 -3.40999169 0.11004581 0 0 Z " fill="#DDDDDD" transform="translate(6.5499420166015625,4.9177093505859375)"/>
<path d="M0 0 C9.24 0 18.48 0 28 0 C28 20.79 28 41.58 28 63 C26.68 62.67 25.36 62.34 24 62 C24.66 62 25.32 62 26 62 C25.89264388 54.32453589 25.78004051 46.64916418 25.66066074 38.97387791 C25.60539973 35.41027032 25.55197482 31.84665457 25.50268555 28.28295898 C25.44599468 24.18984755 25.38142682 20.0968939 25.31640625 16.00390625 C25.29969376 14.71851456 25.28298126 13.43312286 25.26576233 12.10877991 C25.24581711 10.92763107 25.22587189 9.74648224 25.20532227 8.52954102 C25.18977798 7.48363297 25.1742337 6.43772491 25.15821838 5.36012268 C25.26300176 3.04359303 25.26300176 3.04359303 24 2 C22.22130274 1.84235595 20.43681524 1.74899323 18.65234375 1.68359375 C17.57275391 1.64169922 16.49316406 1.59980469 15.38085938 1.55664062 C13.67639648 1.49766602 13.67639648 1.49766602 11.9375 1.4375 C10.79732422 1.39431641 9.65714844 1.35113281 8.48242188 1.30664062 C5.65507805 1.20017161 2.82764262 1.09815793 0 1 C0 0.67 0 0.34 0 0 Z " fill="#969594" transform="translate(14,13)"/>
<path d="M0 0 C6.54805825 5.43349515 6.54805825 5.43349515 8.81835938 8.27929688 C12.05388654 12.1973432 14.49658642 14.65061734 19.53930664 15.82250977 C23.57550339 16.10711176 27.52185838 16.14796317 31.5625 16.0625 C32.96681176 16.0655807 34.37112074 16.072711 35.77539062 16.08398438 C39.1856955 16.09570364 42.5904764 16.06662837 46 16 C42.53322756 18.31118163 41.23668119 18.24417896 37.15161133 18.22705078 C35.35008354 18.22682419 35.35008354 18.22682419 33.51216125 18.22659302 C32.21521835 18.21627045 30.91827545 18.20594788 29.58203125 18.1953125 C28.24110627 18.19158155 26.90017856 18.18873497 25.55924988 18.18673706 C22.03285167 18.17910699 18.50661866 18.15946403 14.98028564 18.1373291 C11.38076004 18.1168571 7.78120769 18.10773245 4.18164062 18.09765625 C-2.87897376 18.07621745 -9.93947609 18.04208913 -17 18 C-16.505 16.515 -16.505 16.515 -16 15 C-6.43 15 3.14 15 13 15 C8.72710086 10.80621858 8.72710086 10.80621858 4.44335938 6.62353516 C3.91548828 6.10065918 3.38761719 5.5777832 2.84375 5.0390625 C2.02680664 4.23782959 2.02680664 4.23782959 1.19335938 3.42041016 C0 2 0 2 0 0 Z " fill="#B1916E" transform="translate(49,82)"/>
<path d="M0 0 C8.91 0 17.82 0 27 0 C27 0.66 27 1.32 27 2 C18.42 2 9.84 2 1 2 C1.09723072 6.59031333 1.20014055 11.17978515 1.31738281 15.76953125 C1.35552961 17.32902398 1.39040682 18.8886004 1.421875 20.44824219 C1.46783825 22.69756874 1.52577808 24.94632615 1.5859375 27.1953125 C1.59748871 27.8861795 1.60903992 28.57704651 1.62094116 29.28884888 C1.74939503 33.55712404 2.58533526 36.99462392 4 41 C3.98367927 43.69291978 3.88312151 46.21118606 3.625 48.875 C3.53992187 49.90753906 3.53992187 49.90753906 3.453125 50.9609375 C3.31307172 52.64157689 3.15807755 54.32096005 3 56 C2.01 56 1.02 56 0 56 C0 37.52 0 19.04 0 0 Z " fill="#C5A786" transform="translate(45,13)"/>
<path d="M0 0 C6.13053511 -0.32712342 10.62669111 -0.39366878 16 3 C15.125 6.875 15.125 6.875 14 8 C16.98646769 9.99097846 19.59687262 10.94124926 23 12 C23 12.33 23 12.66 23 13 C17.06 13 11.12 13 5 13 C4.34 11.02 3.68 9.04 3 7 C4.375 4.625 4.375 4.625 6 3 C5.34 3 4.68 3 4 3 C4 2.34 4 1.68 4 1 C2.68 0.67 1.36 0.34 0 0 Z " fill="#EE810C" transform="translate(65,78)"/>
<path d="M0 0 C0.66 0 1.32 0 2 0 C2.02578125 0.62648438 2.0515625 1.25296875 2.078125 1.8984375 C2.13484375 2.71570313 2.1915625 3.53296875 2.25 4.375 C2.29640625 5.18710938 2.3428125 5.99921875 2.390625 6.8359375 C2.77833651 9.13502044 2.77833651 9.13502044 4.76757812 10.12304688 C7.14878978 11.05844848 8.78332857 11.23166673 11.328125 11.1953125 C12.12734375 11.18886719 12.9265625 11.18242187 13.75 11.17578125 C14.575 11.15902344 15.4 11.14226563 16.25 11.125 C17.51070312 11.11146484 17.51070312 11.11146484 18.796875 11.09765625 C20.86470604 11.07415817 22.93238995 11.03828908 25 11 C25 11.33 25 11.66 25 12 C22.69 12.33 20.38 12.66 18 13 C18.0922808 20.33258892 18.19958834 27.66484716 18.31738281 34.99707031 C18.35568354 37.49181112 18.39053446 39.98660736 18.421875 42.48144531 C18.46750124 46.06595685 18.5255006 49.6500864 18.5859375 53.234375 C18.59748871 54.35116638 18.60903992 55.46795776 18.62094116 56.61859131 C18.64081085 57.65936829 18.66068054 58.70014526 18.68115234 59.77246094 C18.69447601 60.68735291 18.70779968 61.60224487 18.7215271 62.54486084 C19.0175812 65.15500355 19.59412611 66.79174022 21 69 C21.66 69.33 22.32 69.66 23 70 C23 70.66 23 71.32 23 72 C19.83884224 70.63016497 19.0072908 70.0109362 17 67 C16.75949097 64.58918762 16.75949097 64.58918762 16.77294922 61.70239258 C16.77310028 60.62149857 16.77325134 59.54060455 16.77340698 58.42695618 C16.78372955 57.26125595 16.79405212 56.09555573 16.8046875 54.89453125 C16.8075174 53.70018967 16.81034729 52.50584808 16.81326294 51.27531433 C16.82447323 47.45427503 16.84957963 43.63346866 16.875 39.8125 C16.88502869 37.22461276 16.89415473 34.63672184 16.90234375 32.04882812 C16.92441535 25.69913904 16.9579014 19.34958616 17 13 C15.95199219 13.03480469 14.90398438 13.06960937 13.82421875 13.10546875 C12.44532853 13.13360937 11.06642098 13.16090924 9.6875 13.1875 C8.65206055 13.22520508 8.65206055 13.22520508 7.59570312 13.26367188 C2.48233495 13.33777866 2.48233495 13.33777866 0.04003906 11.62744141 C-1.35428036 9.44562608 -1.33372635 7.94539907 -1.25 5.375 C-1.23453125 4.57835937 -1.2190625 3.78171875 -1.203125 2.9609375 C-1 1 -1 1 0 0 Z " fill="#BCAEA0" transform="translate(7,8)"/>
<path d="M0 0 C1.5 1.0625 1.5 1.0625 3 3 C3.1875 6.6875 3.1875 6.6875 3 10 C1.02 10.99 1.02 10.99 -1 12 C-0.01 13.485 -0.01 13.485 1 15 C1.25760279 17.69452521 1.08900053 20.28548375 1 23 C-1.17075592 22.02690252 -2.7609078 21.2724539 -4.34375 19.46875 C-6.47371411 17.5799139 -7.87906664 17.51600966 -10.6875 17.3125 C-11.89986328 17.21388672 -11.89986328 17.21388672 -13.13671875 17.11328125 C-13.75160156 17.07589844 -14.36648437 17.03851563 -15 17 C-14.01 16.34 -13.02 15.68 -12 15 C-12.99 14.34 -13.98 13.68 -15 13 C-13.39679026 12.80448662 -11.79237014 12.61888017 -10.1875 12.4375 C-9.29417969 12.33308594 -8.40085937 12.22867188 -7.48046875 12.12109375 C-5 12 -5 12 -2 13 C-2.061875 11.453125 -2.061875 11.453125 -2.125 9.875 C-2.00424851 6.13170373 -1.35127982 3.46265453 0 0 Z " fill="#ECA75E" transform="translate(62,59)"/>
<path d="M0 0 C0.66 0 1.32 0 2 0 C0.63016497 3.16115776 0.0109362 3.9927092 -3 6 C-2.34 6.66 -1.68 7.32 -1 8 C-0.8046875 10.1640625 -0.8046875 10.1640625 -0.875 12.625 C-0.89304687 13.44226562 -0.91109375 14.25953125 -0.9296875 15.1015625 C-0.96449219 16.04128906 -0.96449219 16.04128906 -1 17 C-0.01 17 0.98 17 2 17 C1.01 16.34 0.02 15.68 -1 15 C-1 14.34 -1 13.68 -1 13 C2.32310483 14.16757737 4.83361132 15.14948857 7 18 C7 18.99 7 19.98 7 21 C5.68 21.33 4.36 21.66 3 22 C3 21.01 3 20.02 3 19 C2.34 19 1.68 19 1 19 C1 21.31 1 23.62 1 26 C0.34 26.33 -0.32 26.66 -1 27 C-1 25.02 -1 23.04 -1 21 C-1.928125 22.4540625 -1.928125 22.4540625 -2.875 23.9375 C-5 27 -5 27 -7 28 C-6.67 27.0925 -6.34 26.185 -6 25.25 C-4.00718474 18.27514657 -3.9491413 10.61019384 -7 4 C-6.030625 3.525625 -5.06125 3.05125 -4.0625 2.5625 C-1.19522563 1.29806053 -1.19522563 1.29806053 0 0 Z " fill="#AAAAAA" transform="translate(98,50)"/>
<path d="M0 0 C1.46109063 0.25554054 2.91888096 0.53000372 4.375 0.8125 C5.59316406 1.03873047 5.59316406 1.03873047 6.8359375 1.26953125 C9 2 9 2 11 5 C11.25760279 7.69452521 11.08900053 10.28548375 11 13 C10.01 13.33 9.02 13.66 8 14 C7.690625 14.804375 7.38125 15.60875 7.0625 16.4375 C5.79203135 19.50157145 4.90652784 19.68737452 2 21 C1.67 21.99 1.34 22.98 1 24 C-1.1875 24.3125 -1.1875 24.3125 -4 24 C-6.8125 21.5 -6.8125 21.5 -9 19 C-8.39671875 19.11859375 -7.7934375 19.2371875 -7.171875 19.359375 C-6.37265625 19.48828125 -5.5734375 19.6171875 -4.75 19.75 C-3.96109375 19.88921875 -3.1721875 20.0284375 -2.359375 20.171875 C0.13388051 20.19693768 0.13388051 20.19693768 2.21875 18.40625 C4.3876789 15.47629342 4.78089703 13.34645614 5.25 9.75 C5.47429687 8.13351563 5.47429687 8.13351563 5.703125 6.484375 C5.80109375 5.66453125 5.8990625 4.8446875 6 4 C4.02 3.34 2.04 2.68 0 2 C0 1.34 0 0.68 0 0 Z " fill="#CBCBCB" transform="translate(77,54)"/>
<path d="M0 0 C7.59 0 15.18 0 23 0 C23 19.14 23 38.28 23 58 C22.67 58 22.34 58 22 58 C22 39.19 22 20.38 22 1 C19.69 1 17.38 1 15 1 C15 1.66 15 2.32 15 3 C10.05 3 5.1 3 0 3 C0 2.01 0 1.02 0 0 Z " fill="#E7E7E7" transform="translate(15,16)"/>
<path d="M0 0 C0.625 2.3125 0.625 2.3125 1 5 C0.01 6.485 0.01 6.485 -1 8 C-1.02048149 11.44771821 -0.55037297 14.89925406 1 18 C1 19.32 1 20.64 1 22 C1.66 21.34 2.32 20.68 3 20 C2.33333333 24.66666667 1.66666667 29.33333333 1 34 C0.01 34 -0.98 34 -2 34 C-1.773125 32.948125 -1.54625 31.89625 -1.3125 30.8125 C-0.9641866 26.56307649 -1.45310647 25.30152865 -4 22 C-4.66 21.34 -5.32 20.68 -6 20 C-5.34 20 -4.68 20 -4 20 C-4.33 13.73 -4.66 7.46 -5 1 C-2 0 -2 0 0 0 Z " fill="#F1C79B" transform="translate(59,38)"/>
<path d="M0 0 C3 1 3 1 4 3 C4.039992 4.99960012 4.04346799 7.00047242 4 9 C2.35 9.66 0.7 10.32 -1 11 C-1 11.66 -1 12.32 -1 13 C-2.65 13.33 -4.3 13.66 -6 14 C-8 11 -8 11 -7.6875 9 C-7.460625 8.34 -7.23375 7.68 -7 7 C-6.67 6.01 -6.34 5.02 -6 4 C-3.125 1.75 -3.125 1.75 0 0 Z " fill="#F6F6F6" transform="translate(99,33)"/>
<path d="M0 0 C0.33 0.66 0.66 1.32 1 2 C0.67 2.99 0.34 3.98 0 5 C0.66 5 1.32 5 2 5 C2 7.97 2 10.94 2 14 C3.32 13.34 4.64 12.68 6 12 C6 12.99 6 13.98 6 15 C6.66 15 7.32 15 8 15 C8 15.66 8 16.32 8 17 C6.5459375 17.4640625 6.5459375 17.4640625 5.0625 17.9375 C2.15934208 18.69523342 2.15934208 18.69523342 1 20 C1.99 20.99 2.98 21.98 4 23 C2.02 23 0.04 23 -2 23 C-2.66 20.69 -3.32 18.38 -4 16 C-3.01 16 -2.02 16 -1 16 C-1.23396484 15.11248047 -1.23396484 15.11248047 -1.47265625 14.20703125 C-3.47823973 6.06515925 -3.47823973 6.06515925 -2 2 C-1.34 1.34 -0.68 0.68 0 0 Z " fill="#E0D4C8" transform="translate(69,55)"/>
<path d="M0 0 C1.485 0.99 1.485 0.99 3 2 C7.95 2.33 12.9 2.66 18 3 C18 20.16 18 37.32 18 55 C17.67 55 17.34 55 17 55 C17 39.16 17 23.32 17 7 C12.71 6.67 8.42 6.34 4 6 C2.68 4.68 1.36 3.36 0 2 C0 1.34 0 0.68 0 0 Z " fill="#D8D8D8" transform="translate(6,18)"/>
<path d="M0 0 C6.22782797 1.30860802 9.1957091 4.87212794 13.25 9.4375 C13.87390625 10.11876953 14.4978125 10.80003906 15.140625 11.50195312 C17.64797616 14.26057978 19.92736069 16.89104103 22 20 C18.16275828 20.90413673 14.62497726 21.10576898 10.6875 21.0625 C9.08455078 21.04896484 9.08455078 21.04896484 7.44921875 21.03515625 C6.64097656 21.02355469 5.83273438 21.01195313 5 21 C5 20.67 5 20.34 5 20 C8.63 20 12.26 20 16 20 C13.39446402 15.15151071 10.09755985 12.37522763 5.86328125 8.96484375 C4 7 4 7 4 3 C2.68 2.34 1.36 1.68 0 1 C0 0.67 0 0.34 0 0 Z " fill="#B9AA9A" transform="translate(26,75)"/>
<path d="M0 0 C3 1 3 1 4.0625 3 C4.371875 3.66 4.68125 4.32 5 5 C8.29370921 6.64685461 11.93002032 6.45394166 15.56640625 6.71875 C18 7 18 7 19 8 C19.09311889 9.50418739 19.11746028 11.01271356 19.11352539 12.51977539 C19.11344986 13.48069595 19.11337433 14.44161652 19.11329651 15.43165588 C19.10813522 16.476436 19.10297394 17.52121613 19.09765625 18.59765625 C19.0962413 19.66165146 19.09482635 20.72564667 19.09336853 21.82188416 C19.08775064 25.23545083 19.07519511 28.648953 19.0625 32.0625 C19.05748731 34.37044176 19.052924 36.67838455 19.04882812 38.98632812 C19.0377754 44.65757426 19.02101987 50.32878253 19 56 C18.67 56 18.34 56 18 56 C18 40.49 18 24.98 18 9 C13.71 9 9.42 9 5 9 C1.6875 6.75 1.6875 6.75 0 4 C0 2.68 0 1.36 0 0 Z " fill="#F8F8F8" transform="translate(3,17)"/>
<path d="M0 0 C2.69082872 0.17635452 5.32851446 0.61835921 8 1 C8.33 1.99 8.66 2.98 9 4 C9.66 4.33 10.32 4.66 11 5 C9.02 5.66 7.04 6.32 5 7 C5.66 7.33 6.32 7.66 7 8 C7 8.66 7 9.32 7 10 C2.25 9.25 2.25 9.25 0 7 C-2.66949409 6.75684344 -2.66949409 6.75684344 -5.625 6.875 C-6.62789063 6.89304687 -7.63078125 6.91109375 -8.6640625 6.9296875 C-9.82035156 6.96449219 -9.82035156 6.96449219 -11 7 C-8.99766723 4.99766723 -7.46399161 4.14342975 -4.9375 2.9375 C-2.27306757 1.74827237 -2.27306757 1.74827237 0 0 Z " fill="#5D5D5D" transform="translate(88,80)"/>
<path d="M0 0 C2 0 4 0 6 0 C6 4.95 6 9.9 6 15 C3.69 14.67 1.38 14.34 -1 14 C-1.99 14.495 -1.99 14.495 -3 15 C-2.67 15.99 -2.34 16.98 -2 18 C-3.32 17.34 -4.64 16.68 -6 16 C-4.54744301 12.17053157 -2.57104439 10.87949705 1 9 C0.67 6.03 0.34 3.06 0 0 Z " fill="#E0E0E0" transform="translate(111,36)"/>
<path d="M0 0 C0.33 0 0.66 0 1 0 C1 1.98 1 3.96 1 6 C-0.65 6 -2.3 6 -4 6 C-4 5.34 -4 4.68 -4 4 C-10.93 4 -17.86 4 -25 4 C-24.67 11.92 -24.34 19.84 -24 28 C-24.66 28.33 -25.32 28.66 -26 29 C-26 20.09 -26 11.18 -26 2 C-17.42 2 -8.84 2 0 2 C0 1.34 0 0.68 0 0 Z " fill="#E9E8E7" transform="translate(72,13)"/>
<path d="M0 0 C1.9375 0.875 1.9375 0.875 3.9375 3.875 C2.7 3.978125 1.4625 4.08125 0.1875 4.1875 C-3.390052 4.6173119 -5.32432593 5.45276909 -8.0625 7.875 C-8.7225 7.875 -9.3825 7.875 -10.0625 7.875 C-10.145 8.49375 -10.2275 9.1125 -10.3125 9.75 C-11.0625 11.875 -11.0625 11.875 -12.8125 12.8125 C-13.555 13.163125 -14.2975 13.51375 -15.0625 13.875 C-15.825625 14.638125 -16.58875 15.40125 -17.375 16.1875 C-20.4530805 19.2655805 -23.37665827 21.55428484 -27.0625 23.875 C-28.0525 23.545 -29.0425 23.215 -30.0625 22.875 C-28.89583333 22 -27.72916667 21.125 -26.5625 20.25 C-25.83546875 19.70214844 -25.1084375 19.15429688 -24.359375 18.58984375 C-22.8797855 17.48518424 -21.39078718 16.39296148 -19.890625 15.31640625 C-15.95047486 12.46498181 -13.07886471 9.72346532 -10.0625 5.875 C-8.42107037 4.8340934 -6.75537785 3.82995674 -5.0625 2.875 C-4.546875 2.2975 -4.03125 1.72 -3.5 1.125 C-2.0625 -0.125 -2.0625 -0.125 0 0 Z " fill="#727272" transform="translate(103.0625,29.125)"/>
<path d="M0 0 C0.33 0 0.66 0 1 0 C1 2.97 1 5.94 1 9 C-4.94 9 -10.88 9 -17 9 C-17 13.62 -17 18.24 -17 23 C-17.66 23 -18.32 23 -19 23 C-19 17.72 -19 12.44 -19 7 C-13.06 7 -7.12 7 -1 7 C-1 5.02 -1 3.04 -1 1 C-0.67 0.67 -0.34 0.34 0 0 Z " fill="#EAAD6C" transform="translate(74,12)"/>
<path d="M0 0 C0.66 0 1.32 0 2 0 C2 0.99 2 1.98 2 3 C2.66 3 3.32 3 4 3 C4 4.65 4 6.3 4 8 C4.66 8 5.32 8 6 8 C5.67 9.32 5.34 10.64 5 12 C3.35 12.33 1.7 12.66 0 13 C0.66 13.66 1.32 14.32 2 15 C1.67 15.66 1.34 16.32 1 17 C-1.55711823 15.72144088 -3.11361341 14.13790481 -5 12 C-5 11.01 -5 10.02 -5 9 C-4.0409375 8.7215625 -4.0409375 8.7215625 -3.0625 8.4375 C-0.57873787 7.05753944 -0.57873787 7.05753944 -0.25 3.375 C-0.1675 2.26125 -0.085 1.1475 0 0 Z " fill="#C9C9C9" transform="translate(99,69)"/>
<path d="M0 0 C1.32 0.33 2.64 0.66 4 1 C3.34 1 2.68 1 2 1 C1.67 1.99 1.34 2.98 1 4 C-0.453125 5.2109375 -0.453125 5.2109375 -2.25 6.375 C-5.54917411 8.61709179 -8.2108936 11.13749606 -11 14 C-12.63260714 15.37482707 -14.30225062 16.70647667 -16 18 C-16.55945313 18.43699219 -17.11890625 18.87398437 -17.6953125 19.32421875 C-21.07688327 21.87869537 -23.65253844 23.60477622 -28 24 C-25.19638653 21.04026885 -22.31470436 18.71443869 -18.9375 16.4375 C-15.44227906 14.0841461 -15.44227906 14.0841461 -12.31640625 11.28515625 C-11 10 -11 10 -9 10 C-8.79375 9.4225 -8.5875 8.845 -8.375 8.25 C-6.50830178 5.19540291 -3.9858093 3.90583572 -1 2 C-0.67 1.34 -0.34 0.68 0 0 Z " fill="#E9E9E9" transform="translate(97,29)"/>
<path d="M0 0 C1.32 0.33 2.64 0.66 4 1 C4.55983773 10.51724138 4.55983773 10.51724138 1 15 C0.2884375 15.8971875 0.2884375 15.8971875 -0.4375 16.8125 C-2 18 -2 18 -6 18 C-6 17.34 -6 16.68 -6 16 C-4.68 15.67 -3.36 15.34 -2 15 C-2 14.34 -2 13.68 -2 13 C-2.66 12.67 -3.32 12.34 -4 12 C-3.51917969 11.60167969 -3.03835937 11.20335938 -2.54296875 10.79296875 C-0.62608175 8.56549753 -0.52258357 7.21165331 -0.3125 4.3125 C-0.24675781 3.50425781 -0.18101563 2.69601563 -0.11328125 1.86328125 C-0.07589844 1.24839844 -0.03851563 0.63351563 0 0 Z " fill="#EBEBEB" transform="translate(79,57)"/>
<path d="M0 0 C5.61 0 11.22 0 17 0 C16.67 0.99 16.34 1.98 16 3 C9.565 3.495 9.565 3.495 3 4 C2.67 7.3 2.34 10.6 2 14 C1.34 14 0.68 14 0 14 C0 9.38 0 4.76 0 0 Z " fill="#F2F0EE" transform="translate(57,21)"/>
<path d="M0 0 C2.86207152 1.28299758 5.0245088 2.530636 7 5 C7 5.99 7 6.98 7 8 C2.545 8.495 2.545 8.495 -2 9 C-2 10.65 -2 12.3 -2 14 C-3.32 14 -4.64 14 -6 14 C-6.625 11.6875 -6.625 11.6875 -7 9 C-6.34 8.01 -5.68 7.02 -5 6 C-1.375 5.3125 -1.375 5.3125 2 5 C1.34 4.34 0.68 3.68 0 3 C0 2.01 0 1.02 0 0 Z " fill="#F7F7F7" transform="translate(32,86)"/>
<path d="M0 0 C1.65 0 3.3 0 5 0 C4.94818192 3.27213285 4.85312595 6.54161377 4.75 9.8125 C4.72873047 11.2056543 4.72873047 11.2056543 4.70703125 12.62695312 C4.67480469 13.51962891 4.64257812 14.41230469 4.609375 15.33203125 C4.58842773 16.15421143 4.56748047 16.9763916 4.54589844 17.82348633 C4 20 4 20 0 23 C0 15.41 0 7.82 0 0 Z " fill="#F9F9F9" transform="translate(47,17)"/>
<path d="M0 0 C5.90909091 5.90909091 5.90909091 5.90909091 6.25 10 C6.1675 10.99 6.085 11.98 6 13 C3 15 3 15 0 15 C0 10.05 0 5.1 0 0 Z " fill="#ECEAE9" transform="translate(49,54)"/>
<path d="M0 0 C0.99 0 1.98 0 3 0 C4.38226016 2.76452033 4.09525387 5.0461363 4.0625 8.125 C4.05347656 9.22070312 4.04445313 10.31640625 4.03515625 11.4453125 C4.02355469 12.28835937 4.01195313 13.13140625 4 14 C2.33333333 14 0.66666667 14 -1 14 C-1.38133299 12.0085944 -1.71325582 10.00720923 -2 8 C-1.67 7.67 -1.34 7.34 -1 7 C-0.63239269 4.67182036 -0.29758419 2.3381615 0 0 Z " fill="#9F9D9A" transform="translate(72,55)"/>
<path d="M0 0 C2.42868849 2.42868849 2.37537649 3.2705504 2.5 6.625 C2.41539623 12.45419997 0.06607326 15.96552835 -4 20 C-7.06533164 21.53266582 -10.26754272 21.10276471 -13.625 21.0625 C-14.33140625 21.05798828 -15.0378125 21.05347656 -15.765625 21.04882812 C-17.51045275 21.03703875 -19.255237 21.01910324 -21 21 C-21.33 20.34 -21.66 19.68 -22 19 C-21.21496094 19.03480469 -20.42992188 19.06960937 -19.62109375 19.10546875 C-10.82060979 19.4298597 -10.82060979 19.4298597 -3 16 C0.20612066 10.98322846 0.30983068 5.78350608 0 0 Z " fill="#DCDCDC" transform="translate(113,71)"/>
<path d="M0 0 C0.99 0 1.98 0 3 0 C4.4606285 2.64738916 5 3.89448334 5 7 C5.99 7.33 6.98 7.66 8 8 C7.67 8.99 7.34 9.98 7 11 C6.01 11 5.02 11 4 11 C3.67 11.66 3.34 12.32 3 13 C3 12.01 3 11.02 3 10 C2.01 9.67 1.02 9.34 0 9 C-1.1875 5.4375 -1.1875 5.4375 -2 2 C-1.34 2 -0.68 2 0 2 C0 1.34 0 0.68 0 0 Z " fill="#DEDEDE" transform="translate(87,43)"/>
<path d="M0 0 C1.5625 1.1875 1.5625 1.1875 3 3 C3.0625 5.4375 3.0625 5.4375 2 8 C-1.0625 10.3125 -1.0625 10.3125 -4 12 C-3.67 13.32 -3.34 14.64 -3 16 C-5.475 15.01 -5.475 15.01 -8 14 C-6.60667426 10.63279613 -5.0210714 9.0140476 -2 7 C-2.7425 6.319375 -2.7425 6.319375 -3.5 5.625 C-5 4 -5 4 -5 2 C-3.35 2.33 -1.7 2.66 0 3 C0 2.01 0 1.02 0 0 Z " fill="#6F6F6F" transform="translate(110,38)"/>
<path d="M0 0 C0.66 0.33 1.32 0.66 2 1 C1.67 2.65 1.34 4.3 1 6 C-2.96 6.66 -6.92 7.32 -11 8 C-10.34 6.68 -9.68 5.36 -9 4 C-10.32 3.34 -11.64 2.68 -13 2 C-8.71 2 -4.42 2 0 2 C0 1.34 0 0.68 0 0 Z " fill="#F69832" transform="translate(73,35)"/>
<path d="M0 0 C0.33 0.66 0.66 1.32 1 2 C-0.44589439 5.52436757 -1.76633702 6.86170967 -5.0625 8.8125 C-9.59688805 10.54451947 -14.22162119 10.25959 -19 10 C-18.34 9.67 -17.68 9.34 -17 9 C-16.67 8.34 -16.34 7.68 -16 7 C-14.1796875 6.796875 -14.1796875 6.796875 -11.875 6.75 C-6.45282754 6.30755073 -3.65389469 3.84187641 0 0 Z " fill="#777777" transform="translate(112,81)"/>
<path d="M0 0 C0.66773437 0.1546875 1.33546875 0.309375 2.0234375 0.46875 C6.84696131 1.32964139 11.71491757 1.44993653 16.6015625 1.71875 C20 2 20 2 23 3 C22.67 3.66 22.34 4.32 22 5 C18.89446608 4.94815917 15.79172169 4.8531005 12.6875 4.75 C11.36588867 4.72873047 11.36588867 4.72873047 10.01757812 4.70703125 C3.47123501 4.45812087 3.47123501 4.45812087 0.89453125 1.953125 C0.59933594 1.30859375 0.30414063 0.6640625 0 0 Z " fill="#E9E9E8" transform="translate(71,91)"/>
<path d="M0 0 C2.62386487 3.06117568 3 3.73173127 3 8 C3.66 7.34 4.32 6.68 5 6 C4.33333333 10.66666667 3.66666667 15.33333333 3 20 C2.01 20 1.02 20 0 20 C0.185625 18.88625 0.37125 17.7725 0.5625 16.625 C1.31680657 13.17431139 1.31680657 13.17431139 0 11 C-0.07033769 9.12620395 -0.0843022 7.24998898 -0.0625 5.375 C-0.05347656 4.37210938 -0.04445312 3.36921875 -0.03515625 2.3359375 C-0.02355469 1.56507812 -0.01195312 0.79421875 0 0 Z " fill="#F4F0ED" transform="translate(57,52)"/>
<path d="M0 0 C1.12588014 0.95729916 2.2506715 1.91587895 3.375 2.875 C4.00148438 3.40867187 4.62796875 3.94234375 5.2734375 4.4921875 C6.55836651 5.61432007 7.79371975 6.79371975 9 8 C9 8.99 9 9.98 9 11 C5.7 11.33 2.4 11.66 -1 12 C-1 13.32 -1 14.64 -1 16 C-1.99 15.67 -2.98 15.34 -4 15 C-3.67 13.35 -3.34 11.7 -3 10 C-0.03 10 2.94 10 6 10 C4.59625449 7.5267341 3.33060832 5.33060832 1.3125 3.3125 C0.879375 2.879375 0.44625 2.44625 0 2 C0 1.34 0 0.68 0 0 Z " fill="#D8D8D8" transform="translate(33,84)"/>
<path d="M0 0 C2.64 0.33 5.28 0.66 8 1 C8 0.67 8 0.34 8 0 C9.65 0 11.3 0 13 0 C13 0.33 13 0.66 13 1 C14.98 1.66 16.96 2.32 19 3 C19 3.33 19 3.66 19 4 C13.06 4 7.12 4 1 4 C0.67 2.68 0.34 1.36 0 0 Z " fill="#EA9D49" transform="translate(69,87)"/>
<path d="M0 0 C0 0.66 0 1.32 0 2 C-0.99 2.495 -0.99 2.495 -2 3 C-1.67 3.33 -1.34 3.66 -1 4 C-1.020625 4.804375 -1.04125 5.60875 -1.0625 6.4375 C-1.29058908 9.16918103 -1.29058908 9.16918103 1 11 C-0.65 11 -2.3 11 -4 11 C-4.99 8.03 -5.98 5.06 -7 2 C-4 0 -4 0 0 0 Z " fill="#CA8438" transform="translate(68,69)"/>
<path d="M0 0 C1.5 1.0625 1.5 1.0625 3 3 C3.5 6.5 3.5 6.5 3 10 C0.5 11.9375 0.5 11.9375 -2 13 C-2.19294408 8.17639811 -1.75747614 4.50353262 0 0 Z " fill="#A3A09D" transform="translate(62,59)"/>
<path d="M0 0 C2.0625 0.125 2.0625 0.125 4 1 C4.66 1.99 5.32 2.98 6 4 C4.80375 4.0825 3.6075 4.165 2.375 4.25 C-2.04377027 4.7767929 -4.51439983 6.29865987 -8 9 C-8.66 8.67 -9.32 8.34 -10 8 C-9.52949219 7.67386719 -9.05898437 7.34773438 -8.57421875 7.01171875 C-7.64029297 6.35623047 -7.64029297 6.35623047 -6.6875 5.6875 C-6.07261719 5.25824219 -5.45773438 4.82898437 -4.82421875 4.38671875 C-2.95630518 3.04229539 -2.95630518 3.04229539 -1.3984375 1.32421875 C-0.93695313 0.88722656 -0.47546875 0.45023438 0 0 Z " fill="#818181" transform="translate(101,29)"/>
<path d="M0 0 C1.32 0 2.64 0 4 0 C3.34 4.29 2.68 8.58 2 13 C1.01 12.67 0.02 12.34 -1 12 C-1.02687279 10.18757948 -1.04633715 8.37504767 -1.0625 6.5625 C-1.07410156 5.55316406 -1.08570313 4.54382813 -1.09765625 3.50390625 C-1 1 -1 1 0 0 Z " fill="#EEEEEE" transform="translate(4,5)"/>
<path d="M0 0 C0.66 0.66 1.32 1.32 2 2 C1.625 5.125 1.625 5.125 1 8 C0.01 8.33 -0.98 8.66 -2 9 C-2.73323796 11.01508358 -2.73323796 11.01508358 -3 13 C-5.475 12.01 -5.475 12.01 -8 11 C-7.34 10.67 -6.68 10.34 -6 10 C-5.67 9.34 -5.34 8.68 -5 8 C-4.01 7.34 -3.02 6.68 -2 6 C-0.78715124 2.94570927 -0.78715124 2.94570927 0 0 Z " fill="#D6D6D6" transform="translate(96,69)"/>
<path d="M0 0 C0.66 0.99 1.32 1.98 2 3 C4.53514474 6.19240449 5.65856896 6.93171379 9.75 7.75 C10.8225 7.8325 11.895 7.915 13 8 C12.67 8.99 12.34 9.98 12 11 C11.34 11 10.68 11 10 11 C10 10.34 10 9.68 10 9 C7.525 10.485 7.525 10.485 5 12 C2.66063182 9.87330165 1.19346152 7.93775144 0 5 C0 4.01 0 3.02 0 2 C-0.66 1.67 -1.32 1.34 -2 1 C-1.34 0.67 -0.68 0.34 0 0 Z " fill="#C9C9C9" transform="translate(90,41)"/>
<path d="M0 0 C3.45015205 4.60020273 3.22331682 6.88234832 2.6875 12.25 C2.62626953 12.99507812 2.56503906 13.74015625 2.50195312 14.5078125 C2.3492857 16.33982155 2.17660246 18.17014316 2 20 C1.34 20 0.68 20 0 20 C0 13.4 0 6.8 0 0 Z " fill="#F5F3F1" transform="translate(46,49)"/>
<path d="M0 0 C0.33 0 0.66 0 1 0 C1 1.98 1 3.96 1 6 C0.01 6 -0.98 6 -2 6 C-2.33 5.34 -2.66 4.68 -3 4 C-14.385 3.505 -14.385 3.505 -26 3 C-26 2.67 -26 2.34 -26 2 C-17.42 2 -8.84 2 0 2 C0 1.34 0 0.68 0 0 Z " fill="#D0D0D0" transform="translate(72,13)"/>
<path d="M0 0 C0 3.63 0 7.26 0 11 C-1.32 10.34 -2.64 9.68 -4 9 C-4.1875 5.625 -4.1875 5.625 -4 2 C-1 0 -1 0 0 0 Z " fill="#EDE6DE" transform="translate(53,43)"/>
<path d="M0 0 C9.24 0 18.48 0 28 0 C27.67 1.32 27.34 2.64 27 4 C26.01 3.34 25.02 2.68 24 2 C21.38710506 1.63250611 21.38710506 1.63250611 18.45703125 1.5859375 C17.38388672 1.54726562 16.31074219 1.50859375 15.20507812 1.46875 C14.08552734 1.4378125 12.96597656 1.406875 11.8125 1.375 C10.68134766 1.33632812 9.55019531 1.29765625 8.38476562 1.2578125 C5.5900075 1.16347467 2.79525722 1.07788348 0 1 C0 0.67 0 0.34 0 0 Z " fill="#868686" transform="translate(14,13)"/>
<path d="M0 0 C5.33333333 5.33333333 10.66666667 10.66666667 16 16 C15.01 16.33 14.02 16.66 13 17 C11.31609536 15.08194295 9.6346188 13.16186941 7.95703125 11.23828125 C6.71102809 9.81321177 5.45904515 8.39333263 4.19921875 6.98046875 C3.65910156 6.36816406 3.11898437 5.75585938 2.5625 5.125 C1.82193359 4.29355469 1.82193359 4.29355469 1.06640625 3.4453125 C0 2 0 2 0 0 Z " fill="#7B756F" transform="translate(32,78)"/>
<path d="M0 0 C0 3.65923696 -0.75756777 5.13896577 -3 8 C-5.375 8.625 -5.375 8.625 -8 8 C-10.8125 5.5 -10.8125 5.5 -13 3 C-12.09507813 3.17789063 -12.09507813 3.17789063 -11.171875 3.359375 C-8.73414325 3.75255754 -6.47079212 4.0467792 -4 4 C-1.4094273 2.24905348 -1.4094273 2.24905348 0 0 Z " fill="#585450" transform="translate(81,70)"/>
<path d="M0 0 C0.33 0.66 0.66 1.32 1 2 C0.67 2.99 0.34 3.98 0 5 C0.66 5 1.32 5 2 5 C1.45276317 8.37462715 0.9451 10.08235 -1 13 C-2.6148266 8.91543861 -3.41164374 6.23493122 -2 2 C-1.34 1.34 -0.68 0.68 0 0 Z " fill="#EBE6E1" transform="translate(69,55)"/>
<path d="M0 0 C5.28 0 10.56 0 16 0 C15.67 0.66 15.34 1.32 15 2 C12.12890625 2.37890625 12.12890625 2.37890625 8.5625 2.5625 C4.1215332 2.66007452 4.1215332 2.66007452 0 4 C0 2.68 0 1.36 0 0 Z " fill="#DFDFDF" transform="translate(57,21)"/>
<path d="M0 0 C0.66 0.33 1.32 0.66 2 1 C1.67 3.97 1.34 6.94 1 10 C0.67 9.34 0.34 8.68 0 8 C-0.66 8 -1.32 8 -2 8 C-2 6.68 -2 5.36 -2 4 C-3.32 4.99 -4.64 5.98 -6 7 C-6 6.01 -6 5.02 -6 4 C-3 1.8125 -3 1.8125 0 0 Z " fill="#BFB8B0" transform="translate(71,52)"/>
<path d="M0 0 C0.66 0 1.32 0 2 0 C0.63016497 3.16115776 0.0109362 3.9927092 -3 6 C-2.34 7.32 -1.68 8.64 -1 10 C-2.875 9.8125 -2.875 9.8125 -5 9 C-6.25 6.4375 -6.25 6.4375 -7 4 C-6.030625 3.525625 -5.06125 3.05125 -4.0625 2.5625 C-1.19522563 1.29806053 -1.19522563 1.29806053 0 0 Z " fill="#4B4B4B" transform="translate(98,50)"/>
<path d="M0 0 C3.32310483 1.16757737 5.83361132 2.14948857 8 5 C8 5.99 8 6.98 8 8 C6.68 8.33 5.36 8.66 4 9 C4 8.01 4 7.02 4 6 C3.34 5.67 2.68 5.34 2 5 C2.33 4.67 2.66 4.34 3 4 C2.01 3.34 1.02 2.68 0 2 C0 1.34 0 0.68 0 0 Z " fill="#555555" transform="translate(97,63)"/>
<path d="M0 0 C0 2.64 0 5.28 0 8 C-2.99324263 6.9024777 -3.84610901 6.32317108 -5.25 3.375 C-5.4975 2.59125 -5.745 1.8075 -6 1 C-4 0 -4 0 0 0 Z " fill="#F3C89A" transform="translate(63,74)"/>
<path d="M0 0 C1.32 0.66 2.64 1.32 4 2 C3.34 2 2.68 2 2 2 C1.96261719 2.61488281 1.92523438 3.22976562 1.88671875 3.86328125 C1.82097656 4.67152344 1.75523438 5.47976562 1.6875 6.3125 C1.62949219 7.11300781 1.57148437 7.91351563 1.51171875 8.73828125 C0.91793306 11.36272334 0.04219706 12.30820672 -2 14 C-2.66 13.34 -3.32 12.68 -4 12 C-3.51917969 11.60167969 -3.03835937 11.20335938 -2.54296875 10.79296875 C-0.62608175 8.56549753 -0.52258357 7.21165331 -0.3125 4.3125 C-0.21388672 3.10013672 -0.21388672 3.10013672 -0.11328125 1.86328125 C-0.07589844 1.24839844 -0.03851563 0.63351563 0 0 Z " fill="#E2E2E1" transform="translate(79,57)"/>
<path d="M0 0 C3.22730142 1.82880414 3.97910367 2.94427644 5.3125 6.5 C6 10 6 10 5 13 C4.34 13 3.68 13 3 13 C2.87625 11.906875 2.7525 10.81375 2.625 9.6875 C2.24535199 5.92618198 2.24535199 5.92618198 0 3 C0 2.01 0 1.02 0 0 Z " fill="#EF8C21" transform="translate(62,56)"/>
<path d="M0 0 C0.33 0.99 0.66 1.98 1 3 C-2.16363636 7.58181818 -2.16363636 7.58181818 -5 9 C-5.33 9.99 -5.66 10.98 -6 12 C-7.32 11.34 -8.64 10.68 -10 10 C-9.01 10 -8.02 10 -7 10 C-6.67 8.68 -6.34 7.36 -6 6 C-5.38125 5.938125 -4.7625 5.87625 -4.125 5.8125 C-1.72238859 5.171081 -1.72238859 5.171081 -0.75 2.4375 C-0.37875 1.2309375 -0.37875 1.2309375 0 0 Z " fill="#D5D0CC" transform="translate(85,68)"/>
<path d="M0 0 C0.66 0 1.32 0 2 0 C2.96661363 3.12180401 2.98988909 5.52083795 2.5625 8.75 C2.46066406 9.54921875 2.35882813 10.3484375 2.25390625 11.171875 C2.12822266 12.07679687 2.12822266 12.07679687 2 13 C0.68 12.01 -0.64 11.02 -2 10 C-1.34 10 -0.68 10 0 10 C0 6.7 0 3.4 0 0 Z " fill="#EDB272" transform="translate(55,48)"/>
<path d="M0 0 C0.33 0.99 0.66 1.98 1 3 C1.66 3 2.32 3 3 3 C3 3.66 3 4.32 3 5 C1.35 5.33 -0.3 5.66 -2 6 C-1.34 6.66 -0.68 7.32 0 8 C-0.33 8.66 -0.66 9.32 -1 10 C-3.51083114 8.74458443 -3.87125446 7.49936512 -5 5 C-3.35 3.35 -1.7 1.7 0 0 Z " fill="#A3A3A3" transform="translate(101,76)"/>
<path d="M0 0 C0.66 0 1.32 0 2 0 C2.08131463 1.43655854 2.13933559 2.8744483 2.1875 4.3125 C2.23970703 5.51326172 2.23970703 5.51326172 2.29296875 6.73828125 C2 9 2 9 -1 12 C-0.67 8.04 -0.34 4.08 0 0 Z " fill="#F6F6F6" transform="translate(77,57)"/>
<path d="M0 0 C0.99 0 1.98 0 3 0 C4.38226016 2.76452033 4.09525387 5.0461363 4.0625 8.125 C4.05347656 9.22070312 4.04445313 10.31640625 4.03515625 11.4453125 C4.02355469 12.28835937 4.01195313 13.13140625 4 14 C3.67 14 3.34 14 3 14 C2.86722656 13.24074219 2.73445313 12.48148438 2.59765625 11.69921875 C2.42105469 10.70535156 2.24445313 9.71148437 2.0625 8.6875 C1.88847656 7.70136719 1.71445313 6.71523438 1.53515625 5.69921875 C1.04253153 2.91810787 1.04253153 2.91810787 0 0 Z " fill="#A48D75" transform="translate(72,55)"/>
<path d="M0 0 C4.455 0.99 4.455 0.99 9 2 C9.33 3.32 9.66 4.64 10 6 C5.05 4.02 5.05 4.02 0 2 C0 1.34 0 0.68 0 0 Z " fill="#535353" transform="translate(77,54)"/>
<path d="M0 0 C1.5625 1.1875 1.5625 1.1875 3 3 C2.6875 5.6875 2.6875 5.6875 2 8 C1.34 8 0.68 8 0 8 C-1.7143618 6.04072937 -3.38405168 4.04119788 -5 2 C-2.525 2.495 -2.525 2.495 0 3 C0 2.01 0 1.02 0 0 Z " fill="#3E3E3E" transform="translate(110,38)"/>
<path d="M0 0 C0.66 0.33 1.32 0.66 2 1 C2 1.99 2 2.98 2 4 C-2.95 3.67 -7.9 3.34 -13 3 C-13 2.67 -13 2.34 -13 2 C-8.71 2 -4.42 2 0 2 C0 1.34 0 0.68 0 0 Z " fill="#FAD0A2" transform="translate(73,35)"/>
<path d="M0 0 C4.29 0.33 8.58 0.66 13 1 C9.6987992 3.20080053 9.10898842 3.21218749 5.375 2.75 C4.57835938 2.66234375 3.78171875 2.5746875 2.9609375 2.484375 C2.31382813 2.32453125 1.66671875 2.1646875 1 2 C0.67 1.34 0.34 0.68 0 0 Z " fill="#D7D7D7" transform="translate(92,86)"/>
<path d="M0 0 C0 0.66 0 1.32 0 2 C-3.51858133 5.25494123 -7.15409462 7.55946315 -12 8 C-4.57142857 0 -4.57142857 0 0 0 Z " fill="#F0F0F0" transform="translate(81,45)"/>
<path d="M0 0 C0.33 0 0.66 0 1 0 C1.33 3.3 1.66 6.6 2 10 C1.01 9.67 0.02 9.34 -1 9 C-1.80967438 6.08517222 -2.21845993 4.53886783 -1.0625 1.6875 C-0.711875 1.130625 -0.36125 0.57375 0 0 Z " fill="#EAEAEA" transform="translate(93,37)"/>
<path d="M0 0 C2.4375 0.875 2.4375 0.875 4.4375 3.875 C3.4475 4.205 2.4575 4.535 1.4375 4.875 C1.1075 3.885 0.7775 2.895 0.4375 1.875 C-1.5425 2.205 -3.5225 2.535 -5.5625 2.875 C-3.71830214 0.44842386 -3.12817806 -0.15259405 0 0 Z " fill="#E3E0DD" transform="translate(86.5625,86.125)"/>
<path d="M0 0 C3 1 3 1 4.75 4.375 C6 8 6 8 5 11 C4.15841464 9.73461631 3.32700252 8.46246221 2.5 7.1875 C1.80390625 6.12595703 1.80390625 6.12595703 1.09375 5.04296875 C0 3 0 3 0 0 Z " fill="#494949" transform="translate(102,54)"/>
<path d="M0 0 C0.66 0.33 1.32 0.66 2 1 C0.4375 3 0.4375 3 -2 5 C-5.75 5.25 -5.75 5.25 -9 5 C-6.32239719 2.32239719 -3.52050129 1.32018799 0 0 Z " fill="#514F4D" transform="translate(86,82)"/>
<path d="M0 0 C2.0625 0.4375 2.0625 0.4375 4 1 C4 2.32 4 3.64 4 5 C2.35 4.67 0.7 4.34 -1 4 C-1 1 -1 1 0 0 Z " fill="#F9F9F9" transform="translate(113,46)"/>
<path d="M0 0 C3.3 0 6.6 0 10 0 C9.01 0.33 8.02 0.66 7 1 C7.33 2.32 7.66 3.64 8 5 C7.01 5.495 7.01 5.495 6 6 C6 5.01 6 4.02 6 3 C5.34 3 4.68 3 4 3 C4 2.34 4 1.68 4 1 C2.68 0.67 1.36 0.34 0 0 Z " fill="#EE983C" transform="translate(65,78)"/>
<path d="M0 0 C0.66 0.33 1.32 0.66 2 1 C2 1.99 2 2.98 2 4 C1.34 4 0.68 4 0 4 C1.32 5.65 2.64 7.3 4 9 C2.35 8.67 0.7 8.34 -1 8 C-1.125 2.25 -1.125 2.25 0 0 Z " fill="#D8D8D8" transform="translate(97,59)"/>
<path d="M0 0 C1.65 0 3.3 0 5 0 C5 0.99 5 1.98 5 3 C5.66 3.33 6.32 3.66 7 4 C6.34 4 5.68 4 5 4 C5 5.98 5 7.96 5 10 C4.67 10 4.34 10 4 10 C3.67 7.36 3.34 4.72 3 2 C2.01 1.67 1.02 1.34 0 1 C0 0.67 0 0.34 0 0 Z " fill="#D9D9D9" transform="translate(72,53)"/>
<path d="M0 0 C0 0.66 0 1.32 0 2 C-1.42578125 3.32421875 -1.42578125 3.32421875 -3.3125 4.6875 C-3.92738281 5.14511719 -4.54226562 5.60273437 -5.17578125 6.07421875 C-5.77777344 6.37972656 -6.37976563 6.68523438 -7 7 C-7.99 6.67 -8.98 6.34 -10 6 C-8.71283353 4.99421411 -7.42011342 3.99553202 -6.125 3 C-5.40570313 2.443125 -4.68640625 1.88625 -3.9453125 1.3125 C-2 0 -2 0 0 0 Z " fill="#898989" transform="translate(83,46)"/>
<path d="M0 0 C0.33 0 0.66 0 1 0 C1 2.64 1 5.28 1 8 C0.01 8 -0.98 8 -2 8 C-2 6.02 -2 4.04 -2 2 C-1.34 2 -0.68 2 0 2 C0 1.34 0 0.68 0 0 Z " fill="#E2E2E2" transform="translate(105,69)"/>
<path d="M0 0 C0.66 1.32 1.32 2.64 2 4 C2.66 4 3.32 4 4 4 C4.33 5.98 4.66 7.96 5 10 C1.32769295 6.92000054 0.43197635 4.7517398 0 0 Z " fill="#9B9B9B" transform="translate(108,63)"/>
<path d="M0 0 C1.98 0.66 3.96 1.32 6 2 C6.33 3.65 6.66 5.3 7 7 C6.01 6.34 5.02 5.68 4 5 C4 4.34 4 3.68 4 3 C2.68 2.34 1.36 1.68 0 1 C0 0.67 0 0.34 0 0 Z " fill="#A49F9A" transform="translate(26,75)"/>
<path d="M0 0 C0.99 0.33 1.98 0.66 3 1 C3 2.65 3 4.3 3 6 C2.01 6 1.02 6 0 6 C0 4.02 0 2.04 0 0 Z " fill="#735E47" transform="translate(64,72)"/>
<path d="M0 0 C0.66 0.66 1.32 1.32 2 2 C1.625 4.625 1.625 4.625 1 7 C0.01 7.33 -0.98 7.66 -2 8 C-1.34 5.36 -0.68 2.72 0 0 Z " fill="#E3E3E3" transform="translate(96,69)"/>
<path d="M0 0 C0.99 1.32 1.98 2.64 3 4 C2.67 4.66 2.34 5.32 2 6 C1.01 6 0.02 6 -1 6 C-1.33 4.35 -1.66 2.7 -2 1 C-1.34 0.67 -0.68 0.34 0 0 Z " fill="#C9C3BC" transform="translate(69,65)"/>
<path d="M0 0 C1.32 1.32 2.64 2.64 4 4 C2.02 4.33 0.04 4.66 -2 5 C-1.34 3.35 -0.68 1.7 0 0 Z " fill="#2A2A2A" transform="translate(103,29)"/>
<path d="M0 0 C2.88575819 0.39803561 3.82189513 0.79009069 5.75 3.0625 C6.1625 3.701875 6.575 4.34125 7 5 C6.67 5.66 6.34 6.32 6 7 C1.125 2.25 1.125 2.25 0 0 Z " fill="#D6D6D6" transform="translate(104,29)"/>
<path d="M0 0 C0.33 0 0.66 0 1 0 C1 1.98 1 3.96 1 6 C0.01 6 -0.98 6 -2 6 C-2.66 4.68 -3.32 3.36 -4 2 C-2.68 2 -1.36 2 0 2 C0 1.34 0 0.68 0 0 Z " fill="#CACACA" transform="translate(72,13)"/>
</svg>
